<svg width="30" height="30" viewBox="0 0 30 30" fill="none" xmlns="http://www.w3.org/2000/svg">
<path d="M15 30C23.2843 30 30 23.2843 30 15C30 6.71573 23.2843 0 15 0C6.71573 0 0 6.71573 0 15C0 23.2843 6.71573 30 15 30Z" fill="url(#paint0_linear_6_1595)"/>
<path d="M25.7384 15.1827H23.094C23.094 9.79385 18.7102 5.42552 13.3021 5.42552C7.96102 5.42552 3.61863 9.68691 3.51235 14.9835C3.4024 20.4585 8.55722 25.2128 14.0524 25.2128H14.7436C19.5883 25.2128 26.0816 21.4338 27.0961 16.8293C27.2834 15.9806 26.6107 15.1827 25.7384 15.1827ZM9.37257 15.4228C9.37257 16.1434 8.78105 16.7328 8.05785 16.7328C7.33464 16.7328 6.74316 16.1432 6.74316 15.4228V13.3035C6.74316 12.5829 7.33464 11.9935 8.05785 11.9935C8.78105 11.9935 9.37257 12.5829 9.37257 13.3035V15.4228ZM13.9377 15.4228C13.9377 16.1434 13.3462 16.7328 12.6231 16.7328C11.8998 16.7328 11.3084 16.1432 11.3084 15.4228V13.3035C11.3084 12.5829 11.9001 11.9935 12.6231 11.9935C13.3462 11.9935 13.9377 12.5829 13.9377 13.3035V15.4228Z" fill="url(#paint1_linear_6_1595)"/>
<defs>
<linearGradient id="paint0_linear_6_1595" x1="15" y1="0" x2="15" y2="30" gradientUnits="userSpaceOnUse">
<stop stop-color="#534BB1"/>
<stop offset="1" stop-color="#551BF9"/>
</linearGradient>
<linearGradient id="paint1_linear_6_1595" x1="15.3191" y1="5.42552" x2="15.3191" y2="25.2128" gradientUnits="userSpaceOnUse">
<stop stop-color="white"/>
<stop offset="1" stop-color="white" stop-opacity="0.82"/>
</linearGradient>
</defs>
</svg>
