<svg width="30" height="27" viewBox="0 0 30 27" fill="none" xmlns="http://www.w3.org/2000/svg">
<path d="M29.8429 21.2878L24.8905 26.6316C24.7833 26.7476 24.6536 26.8403 24.5093 26.9036C24.3651 26.967 24.2094 26.9999 24.052 27H0.575411C0.463441 26.9999 0.353918 26.967 0.260251 26.9053C0.166588 26.8435 0.0928494 26.7557 0.0480623 26.6524C0.00327508 26.5491 -0.0106152 26.4349 0.00809336 26.3239C0.026802 26.2128 0.0772934 26.1095 0.153391 26.0269L5.10024 20.6832C5.20737 20.5671 5.33708 20.4745 5.48135 20.4111C5.62559 20.3477 5.78129 20.3149 5.93869 20.3147H29.4153C29.5282 20.3124 29.6394 20.3437 29.7347 20.4048C29.83 20.4659 29.9055 20.554 29.9511 20.658C29.9969 20.762 30.0109 20.8773 29.9916 20.9894C29.9723 21.1015 29.9206 21.2053 29.8429 21.2878ZM24.8905 10.5244C24.7829 10.4089 24.6531 10.3167 24.509 10.2533C24.3648 10.19 24.2093 10.1568 24.052 10.156H0.575411C0.463441 10.1561 0.353918 10.189 0.260251 10.2508C0.166588 10.3125 0.0928494 10.4004 0.0480623 10.5037C0.00327508 10.6069 -0.0106152 10.7211 0.00809336 10.8322C0.026802 10.9433 0.0772934 11.0465 0.153391 11.1292L5.10024 16.4757C5.20776 16.5912 5.33758 16.6835 5.48174 16.7468C5.6259 16.8102 5.7814 16.8433 5.93869 16.8441H29.4153C29.5271 16.8435 29.6361 16.8102 29.7294 16.7483C29.8228 16.6863 29.896 16.5984 29.9404 16.4952C29.9849 16.3921 29.9986 16.2781 29.9796 16.1672C29.9608 16.0564 29.9105 15.9535 29.8345 15.871L24.8905 10.5244ZM0.575411 6.68539H24.052C24.2094 6.68525 24.3651 6.65243 24.5093 6.58904C24.6536 6.52567 24.7833 6.43303 24.8905 6.31696L29.8429 0.973244C29.9206 0.890703 29.9723 0.786864 29.9916 0.674789C30.0109 0.562714 29.9969 0.44741 29.9511 0.343388C29.9055 0.239365 29.83 0.151271 29.7347 0.0901918C29.6394 0.0291119 29.5282 -0.0022255 29.4153 0.000122963H5.93869C5.78129 0.000289698 5.62559 0.0330904 5.48135 0.09648C5.33708 0.159869 5.20737 0.252488 5.10024 0.368559L0.153391 5.71227C0.0772934 5.79493 0.026802 5.89815 0.00809336 6.00924C-0.0106152 6.12034 0.00327508 6.2345 0.0480623 6.33777C0.0928494 6.44105 0.166588 6.52894 0.260251 6.59067C0.353918 6.65243 0.463441 6.68534 0.575411 6.68539Z" fill="url(#paint0_linear_6_1578)"/>
<defs>
<linearGradient id="paint0_linear_6_1578" x1="2.53179" y1="27.6441" x2="27.3223" y2="-0.128931" gradientUnits="userSpaceOnUse">
<stop offset="0.08" stop-color="#9945FF"/>
<stop offset="0.3" stop-color="#8752F3"/>
<stop offset="0.5" stop-color="#5497D5"/>
<stop offset="0.6" stop-color="#43B4CA"/>
<stop offset="0.72" stop-color="#28E0B9"/>
<stop offset="0.97" stop-color="#19FB9B"/>
</linearGradient>
</defs>
</svg>
