<svg width="1440" height="375" viewBox="0 0 1440 375" fill="none" xmlns="http://www.w3.org/2000/svg">
<path d="M0 8.09097L36 187.633L72 14.2555L108 41.6107L144 9.63211L180 226.162L216 241.573L252 16.1819L288 316.318L324 226.162L360 117.512L396 204.586L432 252.746L468 156.425L504 181.469L540 63.9572L576 196.11L612 176.845L648 21.5759L684 132.923L720 1.92642L756 171.451L792 65.113L828 6.93512L864 32.7492L900 31.9786L936 157.196L972 176.845L1008 142.94L1044 0L1080 204.971L1116 137.546L1152 284.34L1188 125.603L1224 308.998L1260 144.482L1296 240.803L1332 139.858L1368 286.651L1404 120.979L1440 310.154V374.111H1404H1368H1332H1296H1260H1224H1188H1152H1116H1080H1044H1008H972H936H900H864H828H792H756H720H684H648H612H576H540H504H468H432H396H360H324H288H252H216H180H144H108H72H36H0V8.09097Z" fill="#EDF2FA"/>
</svg>
