<svg width="26" height="25" viewBox="0 0 26 25" fill="none" xmlns="http://www.w3.org/2000/svg">
<path d="M25.6489 23.6249C23.6727 20.2099 20.5702 17.8136 16.9652 16.7974C18.7179 15.9065 20.1194 14.4512 20.9438 12.6663C21.7682 10.8813 21.9675 8.87074 21.5094 6.95871C21.0513 5.04669 19.9626 3.34467 18.4189 2.12708C16.8751 0.909494 14.9663 0.247314 13.0002 0.247314C11.0341 0.247314 9.12523 0.909494 7.58148 2.12708C6.03774 3.34467 4.94906 5.04669 4.49098 6.95871C4.03291 8.87074 4.23214 10.8813 5.05655 12.6663C5.88096 14.4512 7.28251 15.9065 9.03519 16.7974C5.43019 17.8124 2.32769 20.2086 0.351438 23.6249C0.297173 23.7103 0.260736 23.8057 0.244319 23.9055C0.227902 24.0053 0.231845 24.1074 0.25591 24.2057C0.279975 24.3039 0.323665 24.3963 0.384352 24.4772C0.445039 24.5581 0.521468 24.626 0.609042 24.6766C0.696616 24.7272 0.793524 24.7596 0.893938 24.7718C0.994351 24.784 1.09619 24.7757 1.19334 24.7476C1.29049 24.7194 1.38093 24.6718 1.45922 24.6078C1.53752 24.5437 1.60205 24.4645 1.64894 24.3749C4.05019 20.2261 8.29269 17.7499 13.0002 17.7499C17.7077 17.7499 21.9502 20.2261 24.3514 24.3749C24.3983 24.4645 24.4629 24.5437 24.5412 24.6078C24.6194 24.6718 24.7099 24.7194 24.807 24.7476C24.9042 24.7757 25.006 24.784 25.1064 24.7718C25.2069 24.7596 25.3038 24.7272 25.3913 24.6766C25.4789 24.626 25.5553 24.5581 25.616 24.4772C25.6767 24.3963 25.7204 24.3039 25.7445 24.2057C25.7685 24.1074 25.7725 24.0053 25.7561 23.9055C25.7396 23.8057 25.7032 23.7103 25.6489 23.6249ZM5.75019 8.9999C5.75019 7.56598 6.17539 6.16427 6.97203 4.97201C7.76867 3.77976 8.90097 2.8505 10.2257 2.30177C11.5505 1.75303 13.0082 1.60946 14.4146 1.8892C15.821 2.16895 17.1128 2.85944 18.1267 3.87337C19.1406 4.8873 19.8311 6.17913 20.1109 7.58549C20.3906 8.99185 20.247 10.4496 19.6983 11.7744C19.1496 13.0991 18.2203 14.2314 17.0281 15.0281C15.8358 15.8247 14.4341 16.2499 13.0002 16.2499C11.0781 16.2476 9.23536 15.483 7.87622 14.1239C6.51709 12.7647 5.7525 10.922 5.75019 8.9999Z" fill="currentColor"/>
</svg>
