<svg width="17" height="18" viewBox="0 0 17 18" fill="none" xmlns="http://www.w3.org/2000/svg">
<path d="M11.7394 4.97381L4.76444 12.066C4.53352 12.3209 4.40945 12.6548 4.41791 12.9986C4.42638 13.3424 4.56673 13.6698 4.80991 13.9129C5.05309 14.1561 5.38047 14.2965 5.72427 14.3049C6.06807 14.3134 6.40196 14.1893 6.65681 13.9584L14.9715 5.52646C15.4334 5.01675 15.6815 4.34897 15.6646 3.66137C15.6476 2.97377 15.3669 2.31901 14.8806 1.83265C14.3942 1.34629 13.7395 1.06559 13.0519 1.04866C12.3643 1.03173 11.6965 1.27987 11.1868 1.7417L2.87206 10.1737C2.11923 10.9265 1.69629 11.9476 1.69629 13.0122C1.69629 14.0769 2.11923 15.098 2.87206 15.8508C3.62489 16.6036 4.64596 17.0266 5.71062 17.0266C6.77529 17.0266 7.79635 16.6036 8.54919 15.8508L15.4237 8.99302" stroke="currentColor" stroke-width="1.5" stroke-linecap="round" stroke-linejoin="round"/>
</svg>
