<svg width="15" height="17" viewBox="0 0 15 17" fill="none" xmlns="http://www.w3.org/2000/svg">
<path d="M13.7503 11.4509C13.1899 10.8519 12.1408 9.95097 12.1408 7C12.1418 5.941 11.7715 4.91477 11.0936 4.09786C10.4157 3.28095 9.47258 2.72445 8.42652 2.5241V1.92308C8.42652 1.80186 8.4025 1.68182 8.35584 1.56983C8.30917 1.45784 8.24078 1.35608 8.15455 1.27036C8.06832 1.18465 7.96596 1.11665 7.8533 1.07027C7.74064 1.02388 7.61989 1 7.49795 1C7.37601 1 7.25526 1.02388 7.14261 1.07027C7.02995 1.11665 6.92758 1.18465 6.84136 1.27036C6.75513 1.35608 6.68673 1.45784 6.64007 1.56983C6.5934 1.68182 6.56938 1.80186 6.56938 1.92308V2.5241C5.52333 2.72445 4.58022 3.28095 3.90232 4.09786C3.22442 4.91477 2.85411 5.941 2.85511 7C2.85511 9.95097 1.80604 10.8519 1.2456 11.4509C1.08574 11.6204 0.997786 11.8446 1.00004 12.0769C1.00015 12.1984 1.02434 12.3186 1.07122 12.4307C1.11811 12.5428 1.18677 12.6447 1.27328 12.7304C1.35979 12.8161 1.46245 12.8841 1.57539 12.9303C1.68834 12.9766 1.80935 13.0003 1.9315 13H13.0685C13.1907 13.0003 13.3117 12.9766 13.4246 12.9303C13.5376 12.8841 13.6402 12.8161 13.7268 12.7304C13.8133 12.6447 13.8819 12.5428 13.9288 12.4307C13.9757 12.3186 13.9999 12.1984 14 12.0769C14.0011 11.844 13.9117 11.6197 13.7503 11.4509Z" stroke="currentColor" stroke-width="1.5"/>
<path d="M6.5 1.5H8.5V2.5L8 3.05H7.5H7L6.5 2.5V1.5Z" fill="currentColor"/>
<path d="M9.5 14.3999C9.5 14.9303 9.28929 15.439 8.91421 15.8141C8.53914 16.1892 8.03043 16.3999 7.5 16.3999C6.96957 16.3999 6.46086 16.1892 6.08579 15.8141C5.71071 15.439 5.5 14.9303 5.5 14.3999L7.5 14.3999H9.5Z" fill="currentColor"/>
</svg>
