<svg width="24" height="24" viewBox="0 0 24 24" fill="none" xmlns="http://www.w3.org/2000/svg">
<path d="M10.6232 3.99217C11.4868 3.5462 12.5128 3.5462 13.3764 3.99217L16.1623 5.43093L18.7191 6.80076C19.6857 7.3186 20.2927 8.32251 20.3023 9.41899L20.3248 12L20.3023 14.581C20.2927 15.6775 19.6857 16.6814 18.7191 17.1992L16.1623 18.5691L13.3764 20.0078C12.5128 20.4538 11.4868 20.4538 10.6232 20.0078L7.8373 18.5691L5.28046 17.1992C4.31391 16.6814 3.70689 15.6775 3.69732 14.581L3.6748 12L3.69732 9.41899C3.70689 8.32251 4.31391 7.3186 5.28046 6.80076L7.8373 5.43093L10.6232 3.99217Z" stroke="currentColor" stroke-width="1.5"/>
<path d="M12.0956 19.9875V12.1125M12.0956 12.1125L19.4081 8.17505M12.0956 12.1125L4.22058 8.17505" stroke="currentColor" stroke-width="1.5"/>
</svg>
