<svg width="18" height="18" viewBox="0 0 18 18" fill="none" xmlns="http://www.w3.org/2000/svg">
<path d="M16.5 6.375C16.5 9.0675 14.3175 11.25 11.625 11.25C11.4975 11.25 11.3625 11.2425 11.235 11.235C11.0475 8.85751 9.14249 6.95249 6.76499 6.76499C6.75749 6.63749 6.75 6.5025 6.75 6.375C6.75 3.6825 8.9325 1.5 11.625 1.5C14.3175 1.5 16.5 3.6825 16.5 6.375Z" stroke="currentColor" stroke-width="1.5" stroke-linecap="round" stroke-linejoin="round"/>
<path d="M11.25 11.625C11.25 14.3175 9.0675 16.5 6.375 16.5C3.6825 16.5 1.5 14.3175 1.5 11.625C1.5 8.9325 3.6825 6.75 6.375 6.75C6.5025 6.75 6.63749 6.75749 6.76499 6.76499C9.14249 6.95249 11.0475 8.85751 11.235 11.235C11.2425 11.3625 11.25 11.4975 11.25 11.625Z" stroke="currentColor" stroke-width="1.5" stroke-linecap="round" stroke-linejoin="round"/>
<path d="M5.715 10.965L6.375 9.75L7.035 10.965L8.25 11.625L7.035 12.285L6.375 13.5L5.715 12.285L4.5 11.625L5.715 10.965Z" stroke="currentColor" stroke-width="1.2" stroke-linecap="round" stroke-linejoin="round"/>
</svg>
