<svg width="18" height="18" viewBox="0 0 18 18" fill="none" xmlns="http://www.w3.org/2000/svg">
<path d="M12 9.85V13.15C12 15.9 10.9 17 8.15 17H4.85C2.1 17 1 15.9 1 13.15V9.85C1 7.1 2.1 6 4.85 6H8.15C10.9 6 12 7.1 12 9.85Z" stroke="currentColor" stroke-width="1.5" stroke-linecap="round" stroke-linejoin="round"/>
<path d="M17 4.85V8.15C17 10.9 15.9 12 13.15 12H12.2857V9.56429C12.2857 6.81429 11.1857 5.71429 8.43571 5.71429H6V4.85C6 2.1 7.1 1 9.85 1H13.15C15.9 1 17 2.1 17 4.85Z" stroke="currentColor" stroke-width="1.5" stroke-linecap="round" stroke-linejoin="round"/>
</svg>
