<svg width="18" height="17" viewBox="0 0 18 17" fill="none" xmlns="http://www.w3.org/2000/svg">
<path d="M1.92857 0C0.868861 0 0 0.868861 0 1.92857V12.2143C0 13.274 0.868861 14.1429 1.92857 14.1429H3.85714V14.7857C3.85714 15.8454 4.726 16.7143 5.78571 16.7143H16.0714C17.1311 16.7143 18 15.8454 18 14.7857V4.5C18 3.44029 17.1311 2.57143 16.0714 2.57143H14.1429V1.92857C14.1429 0.868861 13.274 0 12.2143 0H1.92857ZM1.92857 1.28571H12.2143C12.5759 1.28571 12.8571 1.56696 12.8571 1.92857V12.2143C12.8571 12.5759 12.5759 12.8571 12.2143 12.8571H1.92857C1.56696 12.8571 1.28571 12.5759 1.28571 12.2143V1.92857C1.28571 1.56696 1.56696 1.28571 1.92857 1.28571ZM14.1429 3.85714H16.0714C16.433 3.85714 16.7143 4.13839 16.7143 4.5V14.7857C16.7143 15.1473 16.433 15.4286 16.0714 15.4286H5.78571C5.42411 15.4286 5.14286 15.1473 5.14286 14.7857V14.1429H12.2143C13.274 14.1429 14.1429 13.274 14.1429 12.2143V3.85714Z" fill="currentColor"/>
</svg>
