<svg width="26" height="26" viewBox="0 0 26 26" fill="none" xmlns="http://www.w3.org/2000/svg">
<path d="M25 6.33333C25 9.28 19.6267 11.6667 13 11.6667C6.37333 11.6667 1 9.28 1 6.33333M25 6.33333C25 3.38667 19.6267 1 13 1C6.37333 1 1 3.38667 1 6.33333M25 6.33333V13M1 6.33333V13M25 13C25 15.9467 19.6267 18.3333 13 18.3333C6.37333 18.3333 1 15.9467 1 13M25 13V19.6667C25 22.6133 19.6267 25 13 25C6.37333 25 1 22.6133 1 19.6667V13" stroke="currentColor" stroke-width="1.3" stroke-linecap="round" stroke-linejoin="round"/>
</svg>
