<svg width="28" height="24" viewBox="0 0 28 24" fill="none" xmlns="http://www.w3.org/2000/svg">
<path d="M6.94996 7.85276L1.97301 12L6.94996 16.1473C7.02175 16.2061 7.08117 16.2786 7.12482 16.3605C7.16846 16.4424 7.19545 16.5321 7.20425 16.6245C7.21304 16.7169 7.20345 16.8101 7.17604 16.8988C7.14863 16.9875 7.10393 17.0698 7.04453 17.1411C6.98514 17.2125 6.91221 17.2713 6.82995 17.3143C6.7477 17.3573 6.65775 17.3835 6.56529 17.3916C6.47283 17.3997 6.37969 17.3893 6.29125 17.3612C6.2028 17.3331 6.1208 17.2877 6.04996 17.2278L0.424965 12.5403C0.345753 12.4743 0.282021 12.3917 0.238284 12.2983C0.194547 12.205 0.171875 12.1031 0.171875 12C0.171875 11.8969 0.194547 11.7951 0.238284 11.7017C0.282021 11.6084 0.345753 11.5258 0.424965 11.4598L6.04996 6.77229C6.19344 6.65471 6.37758 6.59859 6.56225 6.61616C6.74692 6.63373 6.91717 6.72357 7.0359 6.86611C7.15463 7.00865 7.21222 7.19233 7.19612 7.37713C7.18002 7.56194 7.09155 7.7329 6.94996 7.85276ZM27.575 11.4598L21.95 6.77229C21.8791 6.71232 21.7971 6.66697 21.7087 6.63885C21.6202 6.61073 21.5271 6.6004 21.4346 6.60846C21.3422 6.61651 21.2522 6.64279 21.17 6.68577C21.0877 6.72876 21.0148 6.7876 20.9554 6.85892C20.896 6.93023 20.8513 7.01259 20.8239 7.10126C20.7965 7.18993 20.7869 7.28314 20.7957 7.37554C20.8045 7.46793 20.8315 7.55766 20.8751 7.63957C20.9188 7.72148 20.9782 7.79393 21.05 7.85276L26.0269 12L21.05 16.1473C20.9782 16.2061 20.9188 16.2786 20.8751 16.3605C20.8315 16.4424 20.8045 16.5321 20.7957 16.6245C20.7869 16.7169 20.7965 16.8101 20.8239 16.8988C20.8513 16.9875 20.896 17.0698 20.9554 17.1411C21.0148 17.2125 21.0877 17.2713 21.17 17.3143C21.2522 17.3573 21.3422 17.3835 21.4346 17.3916C21.5271 17.3997 21.6202 17.3893 21.7087 17.3612C21.7971 17.3331 21.8791 17.2877 21.95 17.2278L27.575 12.5403C27.6542 12.4743 27.7179 12.3917 27.7616 12.2983C27.8054 12.205 27.8281 12.1031 27.8281 12C27.8281 11.8969 27.8054 11.7951 27.7616 11.7017C27.7179 11.6084 27.6542 11.5258 27.575 11.4598ZM17.9902 1.0301C17.9033 0.998598 17.811 0.984552 17.7186 0.988769C17.6262 0.992986 17.5356 1.01538 17.4519 1.05468C17.3681 1.09398 17.293 1.1494 17.2307 1.21778C17.1685 1.28615 17.1203 1.36614 17.089 1.45315L9.58903 22.0782C9.52738 22.2535 9.53764 22.4461 9.61758 22.6138C9.69751 22.7816 9.8406 22.9109 10.0156 22.9735C10.0908 23.0004 10.17 23.0147 10.25 23.0157C10.3943 23.0157 10.5352 22.9713 10.6534 22.8885C10.7717 22.8056 10.8616 22.6884 10.9109 22.5528L18.4109 1.92776C18.4425 1.84097 18.4566 1.7488 18.4526 1.65654C18.4485 1.56427 18.4263 1.47371 18.3872 1.39002C18.3482 1.30634 18.293 1.23117 18.2249 1.16881C18.1567 1.10645 18.077 1.05812 17.9902 1.02659V1.0301Z" fill="currentColor"/>
</svg>
