<svg width="18" height="19" viewBox="0 0 18 19" fill="none" xmlns="http://www.w3.org/2000/svg">
<path fill-rule="evenodd" clip-rule="evenodd" d="M12.6294 2.30587C12.6294 2.30587 12.6294 2.30586 12.6294 2.30587L2.58037 12.9829L1.78777 17.1936L5.67869 16.3668L15.719 5.69901C16.1351 5.25684 16.375 4.64946 16.375 4.0088C16.375 3.36816 16.1351 2.7608 15.719 2.31863C15.719 2.31862 15.719 2.31864 15.719 2.31863L15.707 2.30588C15.2921 1.86502 14.7377 1.625 14.1682 1.625C13.5987 1.625 13.0443 1.86501 12.6294 2.30587ZM16.6292 6.5557L6.45495 17.3659C6.36771 17.4586 6.25425 17.5224 6.12974 17.5489L1.12992 18.6113C0.925444 18.6548 0.712783 18.5931 0.563253 18.4471C0.413723 18.301 0.347127 18.0898 0.385797 17.8844L1.38576 12.5721C1.40784 12.4548 1.46305 12.3463 1.54485 12.2593L11.7191 1.44915C12.3619 0.766302 13.2419 0.375 14.1682 0.375C15.0945 0.375 15.9745 0.766287 16.6172 1.44913C16.6172 1.44913 16.6172 1.44912 16.6172 1.44913L16.6292 1.46188C17.2707 2.14347 17.625 3.06026 17.625 4.0088C17.625 4.95735 17.2707 5.87411 16.6292 6.5557Z" fill="currentColor"/>
</svg>
