<svg width="26" height="26" viewBox="0 0 26 26" fill="none" xmlns="http://www.w3.org/2000/svg">
<path d="M1 7V4C1 3.20435 1.31607 2.44129 1.87868 1.87868C2.44129 1.31607 3.20435 1 4 1H7M1 19V22C1 22.7957 1.31607 23.5587 1.87868 24.1213C2.44129 24.6839 3.20435 25 4 25H7M19 1H22C22.7957 1 23.5587 1.31607 24.1213 1.87868C24.6839 2.44129 25 3.20435 25 4V7M19 25H22C22.7957 25 23.5587 24.6839 24.1213 24.1213C24.6839 23.5587 25 22.7957 25 22V19M10 11.5V8.5C10 7.70435 10.3161 6.94129 10.8787 6.37868C11.4413 5.81607 12.2044 5.5 13 5.5C13.7956 5.5 14.5587 5.81607 15.1213 6.37868C15.6839 6.94129 16 7.70435 16 8.5V11.5M7 13C7 12.6022 7.15804 12.2206 7.43934 11.9393C7.72064 11.658 8.10218 11.5 8.5 11.5H17.5C17.8978 11.5 18.2794 11.658 18.5607 11.9393C18.842 12.2206 19 12.6022 19 13V17.5C19 17.8978 18.842 18.2794 18.5607 18.5607C18.2794 18.842 17.8978 19 17.5 19H8.5C8.10218 19 7.72064 18.842 7.43934 18.5607C7.15804 18.2794 7 17.8978 7 17.5V13Z" stroke="currentColor" stroke-width="1.3" stroke-linecap="round" stroke-linejoin="round"/>
</svg>
