<svg width="28" height="28" viewBox="0 0 28 28" fill="none" xmlns="http://www.w3.org/2000/svg">
<path d="M6.5 11.4997V8.99965C6.5 4.86215 7.75 1.49965 14 1.49965C20.25 1.49965 21.5 4.86215 21.5 8.99965V11.4997" stroke="currentColor" stroke-width="1.5" stroke-linecap="round" stroke-linejoin="round"/>
<path d="M14.001 22.125C15.7269 22.125 17.126 20.7259 17.126 19C17.126 17.2741 15.7269 15.875 14.001 15.875C12.2751 15.875 10.876 17.2741 10.876 19C10.876 20.7259 12.2751 22.125 14.001 22.125Z" stroke="currentColor" stroke-width="1.5" stroke-linecap="round" stroke-linejoin="round"/>
<path d="M20.251 26.5005H7.75098C2.75098 26.5005 1.50098 25.2505 1.50098 20.2505V17.7505C1.50098 12.7505 2.75098 11.5005 7.75098 11.5005H20.251C25.251 11.5005 26.501 12.7505 26.501 17.7505V20.2505C26.501 25.2505 25.251 26.5005 20.251 26.5005Z" stroke="currentColor" stroke-width="1.5" stroke-linecap="round" stroke-linejoin="round"/>
</svg>
