<svg width="24" height="24" viewBox="0 0 24 24" fill="none" xmlns="http://www.w3.org/2000/svg">
<path d="M18.7311 15.3218C18.1275 14.6729 16.9978 13.6969 16.9978 10.5C16.9989 9.35275 16.6001 8.241 15.87 7.35602C15.14 6.47103 14.1243 5.86816 12.9978 5.65111V5C12.9978 4.86868 12.9719 4.73864 12.9217 4.61732C12.8714 4.49599 12.7978 4.38575 12.7049 4.29289C12.612 4.20003 12.5018 4.12638 12.3805 4.07612C12.2592 4.02587 12.1291 4 11.9978 4C11.8665 4 11.7364 4.02587 11.6151 4.07612C11.4938 4.12638 11.3835 4.20003 11.2907 4.29289C11.1978 4.38575 11.1242 4.49599 11.0739 4.61732C11.0237 4.73864 10.9978 4.86868 10.9978 5V5.65111C9.87128 5.86816 8.85562 6.47103 8.12557 7.35602C7.39552 8.241 6.99673 9.35275 6.99782 10.5C6.99782 13.6969 5.86804 14.6729 5.26449 15.3218C5.09233 15.5054 4.99762 15.7483 5.00005 16C5.00016 16.1315 5.02621 16.2618 5.0767 16.3833C5.12719 16.5047 5.20113 16.6151 5.2943 16.7079C5.38746 16.8008 5.49802 16.8744 5.61965 16.9245C5.74129 16.9746 5.8716 17.0003 6.00315 17H17.9969C18.1284 17.0003 18.2587 16.9746 18.3804 16.9245C18.502 16.8744 18.6126 16.8008 18.7057 16.7079C18.7989 16.6151 18.8728 16.5047 18.9233 16.3833C18.9738 16.2618 18.9999 16.1315 19 16C19.0012 15.7477 18.9049 15.5047 18.7311 15.3218Z" stroke="currentColor" stroke-width="1.5"/>
<path d="M11 4H13V5.29032L12.5 6H12H11.5L11 5.29032V4Z" fill="none"/>
<path d="M14 18.5C14 19.163 13.7893 19.7989 13.4142 20.2678C13.0391 20.7366 12.5304 21 12 21C11.4696 21 10.9609 20.7366 10.5858 20.2678C10.2107 19.7989 10 19.163 10 18.5L12 18.5H14Z" fill="none"/>
</svg>
