<svg width="24" height="24" viewBox="0 0 24 24" fill="none" xmlns="http://www.w3.org/2000/svg">
<circle cx="12" cy="12" r="10" fill="#AB9FF2"/>
<path d="M6.53828 17C8.19722 17 9.44391 15.6673 10.1879 14.6141C10.0975 14.8472 10.0472 15.0801 10.0472 15.3038C10.0472 15.9189 10.4292 16.3569 11.1833 16.3569C12.2189 16.3569 13.3248 15.5182 13.8979 14.6141C13.8577 14.7446 13.8376 14.8658 13.8376 14.9776C13.8376 15.4064 14.099 15.6766 14.6319 15.6766C16.3109 15.6766 18 12.9273 18 10.5228C18 8.64959 16.9745 7 14.4006 7C9.87626 7 5 12.1072 5 15.4064C5 16.7018 5.75405 17 6.53828 17ZM12.8422 10.3178C12.8422 9.8518 13.1237 9.52563 13.536 9.52563C13.9381 9.52563 14.2196 9.8518 14.2196 10.3178C14.2196 10.7838 13.9381 11.1193 13.536 11.1193C13.1237 11.1193 12.8422 10.7838 12.8422 10.3178ZM14.9938 10.3178C14.9938 9.8518 15.2753 9.52563 15.6876 9.52563C16.0897 9.52563 16.3712 9.8518 16.3712 10.3178C16.3712 10.7838 16.0897 11.1193 15.6876 11.1193C15.2753 11.1193 14.9938 10.7838 14.9938 10.3178Z" fill="#FFFDF8"/>
</svg>
