<svg width="30" height="30" viewBox="0 0 30 30" fill="none" xmlns="http://www.w3.org/2000/svg">
<g clip-path="url(#clip0_1401_1833)">
<path d="M15 30C23.2843 30 30 23.2843 30 15C30 6.71573 23.2843 0 15 0C6.71573 0 0 6.71573 0 15C0 23.2843 6.71573 30 15 30Z" fill="#E6FBFF"/>
<path d="M18.771 16.9915C18.771 15.0002 17.571 14.3177 15.171 14.0327C13.4572 13.8049 13.115 13.3502 13.115 12.5534C13.115 11.7565 13.6869 11.2446 14.8288 11.2446C15.8572 11.2446 16.4291 11.5859 16.7141 12.4399C16.7438 12.5225 16.7981 12.594 16.8696 12.6448C16.9412 12.6956 17.0266 12.7232 17.1144 12.724H18.0285C18.0812 12.7254 18.1338 12.7161 18.1829 12.6966C18.2319 12.6771 18.2766 12.6478 18.314 12.6105C18.3514 12.5733 18.3809 12.5288 18.4006 12.4798C18.4204 12.4308 18.4299 12.3783 18.4288 12.3255V12.2693C18.3171 11.6514 18.0044 11.0877 17.5394 10.6657C17.0744 10.2438 16.483 9.98719 15.8572 9.93586V8.57086C15.8572 8.34305 15.6856 8.17242 15.4006 8.11523H14.5428C14.315 8.11523 14.1435 8.28586 14.0863 8.57086V9.87961C12.3716 10.1065 11.2869 11.2446 11.2869 12.6677C11.2869 14.5446 12.4288 15.2843 14.8288 15.5693C16.4291 15.8534 16.9428 16.1955 16.9428 17.1059C16.9428 18.0152 16.1431 18.6415 15.0575 18.6415C13.5716 18.6415 13.0578 18.0162 12.8863 17.1621C12.83 16.9352 12.6575 16.8209 12.486 16.8209H11.5147C11.462 16.8196 11.4096 16.829 11.3606 16.8486C11.3116 16.8681 11.2671 16.8974 11.2298 16.9346C11.1925 16.9719 11.1631 17.0163 11.1434 17.0652C11.1237 17.1142 11.1142 17.1666 11.1153 17.2193V17.2755C11.3431 18.6987 12.2581 19.7224 14.1435 20.0074V21.3734C14.1435 21.6002 14.315 21.7718 14.6 21.828H15.4578C15.6856 21.828 15.8572 21.6574 15.9144 21.3734V20.0065C17.6291 19.7224 18.771 18.5271 18.771 16.9905V16.9915Z" fill="#1DC3CF"/>
<path d="M12.0866 22.9659C7.6297 21.3722 5.34408 16.4222 7.00158 12.0412C7.85845 9.65062 9.74377 7.83094 12.0866 6.97687C12.3153 6.86344 12.4288 6.69281 12.4288 6.40781V5.61094C12.4288 5.38406 12.3153 5.21344 12.0866 5.15625C12.0294 5.15625 11.915 5.15625 11.8578 5.2125C10.572 5.61405 9.37827 6.266 8.34541 7.13079C7.31256 7.99558 6.46097 9.05614 5.83968 10.2514C5.2184 11.4467 4.83968 12.753 4.72534 14.0952C4.611 15.4375 4.76329 16.7891 5.17345 18.0722C6.20095 21.2597 8.65814 23.7066 11.8578 24.7303C12.0866 24.8438 12.3153 24.7303 12.3716 24.5025C12.4288 24.4462 12.4288 24.3881 12.4288 24.2747V23.4778C12.4288 23.3072 12.2581 23.0803 12.0866 22.9659ZM18.1428 5.21344C17.9141 5.09906 17.6853 5.21344 17.6291 5.44031C17.5719 5.4975 17.5719 5.55469 17.5719 5.66813V6.465C17.5719 6.69281 17.7425 6.91969 17.9141 7.03406C22.371 8.62781 24.6566 13.5778 22.9991 17.9587C22.1422 20.3494 20.2569 22.1691 17.9141 23.0231C17.6853 23.1366 17.5719 23.3072 17.5719 23.5922V24.3891C17.5719 24.6159 17.6853 24.7866 17.9141 24.8438C17.9713 24.8438 18.0856 24.8438 18.1428 24.7875C19.4287 24.3859 20.6224 23.734 21.6552 22.8692C22.6881 22.0044 23.5397 20.9439 24.161 19.7486C24.7823 18.5533 25.161 17.247 25.2753 15.9048C25.3897 14.5625 25.2374 13.2109 24.8272 11.9278C23.7997 8.68406 21.2853 6.23719 18.1428 5.21344Z" fill="#1DC3CF"/>
</g>
<defs>
<clipPath id="clip0_1401_1833">
<rect width="30" height="30" fill="white"/>
</clipPath>
</defs>
</svg>
