<svg width="36" height="36" viewBox="0 0 36 36" fill="none" xmlns="http://www.w3.org/2000/svg">
<g clip-path="url(#clip0_2795_14200)">
<mask id="mask0_2795_14200" style="mask-type:luminance" maskUnits="userSpaceOnUse" x="0" y="0" width="36" height="36">
<path d="M18 36C27.9411 36 36 27.9411 36 18C36 8.05888 27.9411 0 18 0C8.05888 0 0 8.05888 0 18C0 27.9411 8.05888 36 18 36Z" fill="white"/>
</mask>
<g mask="url(#mask0_2795_14200)">
<path d="M17.7487 41.5811C30.5864 41.5811 40.9934 31.8459 40.9934 19.8369C40.9934 7.82796 30.5864 -1.90723 17.7487 -1.90723C4.91094 -1.90723 -5.49609 7.82796 -5.49609 19.8369C-5.49609 31.8459 4.91094 41.5811 17.7487 41.5811Z" fill="#3E00FF"/>
<path d="M11.7386 -2.26587H9.73535V4.64953H11.7386V-2.26587Z" fill="#80FFED"/>
<path d="M11.7386 5.76587H9.73535V12.6813H11.7386V5.76587Z" fill="#80FFED"/>
<path d="M17.0726 0H15.0693V6.9154H17.0726V0Z" fill="#80FFED"/>
<path d="M17.0726 8.03149H15.0693V14.9469H17.0726V8.03149Z" fill="#80FFED"/>
<path d="M22.5238 -5.21899H20.5205V1.69641H22.5238V-5.21899Z" fill="#80FFED"/>
<path d="M22.5238 2.81274H20.5205V4.81603H22.5238V2.81274Z" fill="#80FFED"/>
<path d="M27.2142 1.24536H25.2109V6.81538H27.2142V1.24536Z" fill="#80FFED"/>
<path d="M27.2142 17.9741H25.2109V32.3741H27.2142V17.9741Z" fill="#80FFED"/>
<path d="M28.6083 16.0002C28.5343 16.2109 28.4456 16.4216 28.3421 16.6286C28.3421 16.6286 28.3237 16.6655 28.2904 16.732C28.2497 16.806 28.1906 16.9205 28.1056 17.061C28.0723 17.1238 28.0354 17.1867 27.991 17.2458C27.7064 17.7189 27.359 18.1624 26.9598 18.5394C25.3483 20.0733 20.8391 19.5078 19.4124 21.5591C18.3959 23.0265 19.3126 25.3476 20.0333 27.1661C20.9352 29.4503 22.336 30.9546 23.1898 31.7493C23.4079 39.3706 19.697 44.9259 15.6571 45.521C15.6497 45.521 15.646 45.521 15.6387 45.521C11.1257 46.1641 7.24851 40.4462 6.49081 39.2598C6.45015 39.1969 6.42058 39.1489 6.4021 39.123C6.4021 39.1119 6.39471 39.1045 6.39102 39.1045C6.1249 38.6721 5.88465 38.2359 5.66658 37.7887C5.65179 37.7628 5.64071 37.7333 5.62592 37.7C5.59635 37.6372 5.55939 37.5485 5.51504 37.4561C5.50395 37.4339 5.49656 37.408 5.48547 37.3858C5.26001 36.8684 4.90149 35.9702 4.61319 34.9279C4.58732 34.8392 4.56514 34.7505 4.54297 34.6618C4.5134 34.5398 4.48383 34.4216 4.45426 34.2996C4.40251 34.0741 4.34338 33.76 4.29533 33.5086C4.01442 32.9431 3.57089 31.9637 3.17911 30.6589C2.55077 28.5633 2.06288 25.6286 2.66165 22.2355C3.43783 17.8076 5.66288 14.8359 6.77171 13.5386C6.76062 13.5386 6.74954 13.5275 6.73106 13.5238C6.71627 13.5164 6.70149 13.509 6.67931 13.5053C6.5906 13.4684 6.45015 13.4129 6.28013 13.3279C6.24687 13.3095 6.2136 13.291 6.17664 13.2762C6.16925 13.2688 6.15816 13.2651 6.15446 13.2614C6.09533 13.2281 6.0288 13.1912 5.96596 13.1542C5.85878 13.0914 5.7405 13.0175 5.62592 12.9288C5.58527 12.8992 5.54461 12.8733 5.50395 12.8401C5.42264 12.7772 5.34502 12.7144 5.26001 12.6442C5.17869 12.5739 5.10108 12.5 5.01976 12.4187C4.96802 12.3669 4.91627 12.3152 4.86453 12.2598C4.80539 12.1932 4.74255 12.1267 4.68711 12.0528C4.63537 11.9899 4.58362 11.9234 4.53188 11.8532C4.45796 11.7534 4.39143 11.6462 4.32859 11.5353C4.29533 11.4836 4.26576 11.4318 4.23619 11.3764C4.15487 11.2175 4.07726 11.0511 4.01073 10.8737C3.52284 9.569 3.81483 8.41212 3.93681 8.01295C7.43331 8.8187 9.15939 8.48974 10.0945 8.01295C10.9964 7.54724 11.9573 7.18872 12.8001 6.63061C12.9405 6.5382 13.3803 6.26469 14.005 6.05401C14.212 5.98379 14.4485 5.93204 14.7849 5.89878C15.0214 5.8766 15.2617 5.86182 15.4908 5.86182C15.5795 5.86182 15.6645 5.86182 15.7532 5.86921C15.8456 5.86921 15.9454 5.8803 16.0378 5.88769C16.1302 5.89508 16.2263 5.90617 16.3187 5.91726C16.4925 5.93574 16.6625 5.969 16.8325 6.00227C16.8658 6.00966 16.899 6.01705 16.9286 6.02075C17.0025 6.03923 17.0727 6.05401 17.1467 6.07249C17.2354 6.09097 17.3278 6.11685 17.4165 6.14272C17.5052 6.1649 17.5939 6.19447 17.6826 6.22403C17.69 6.22403 17.7011 6.22403 17.7085 6.23143C17.7898 6.2573 17.8674 6.28317 17.945 6.31274C18.0337 6.34231 18.1187 6.37557 18.2074 6.40884C18.2851 6.43471 18.3627 6.46428 18.4366 6.49755C18.7064 6.60843 18.9725 6.7267 19.2313 6.85976C19.3976 6.94108 19.5639 7.02609 19.7265 7.11849C19.8115 7.16284 19.8892 7.2072 19.9705 7.25155C20.0518 7.2959 20.1331 7.34026 20.2144 7.392C20.2994 7.44005 20.3771 7.4881 20.4584 7.53615C20.6838 7.66921 20.9019 7.80596 21.1237 7.94642C21.2493 8.02403 21.3713 8.10535 21.497 8.18297C21.6818 8.30494 21.8666 8.42321 22.044 8.54149C22.1364 8.60432 22.2288 8.66716 22.3101 8.7226C22.3988 8.77804 22.4764 8.83718 22.5541 8.89262C22.6058 8.93327 22.6575 8.97024 22.7056 9.0072C22.8017 9.07742 22.8941 9.14765 22.9754 9.21787C23.0161 9.25114 23.0567 9.2844 23.0974 9.31767C23.1122 9.32876 23.1233 9.33615 23.138 9.35093C23.1935 9.39898 23.2452 9.43964 23.297 9.48769C23.3228 9.50987 23.3487 9.53204 23.3709 9.55422C23.4189 9.59857 23.4633 9.64293 23.5076 9.68358C23.5298 9.70206 23.552 9.72424 23.5705 9.74642C23.6074 9.77968 23.6407 9.81664 23.674 9.84991C23.6851 9.861 23.6925 9.86839 23.6925 9.86839C23.7109 9.88687 23.7627 9.93861 23.8662 10.0421C24.0362 10.2158 24.1951 10.3821 24.3799 10.5559C24.4169 10.5891 24.4502 10.6187 24.4908 10.652C24.4908 10.652 24.5056 10.6667 24.5093 10.6704C24.7606 10.8811 25.0748 11.1066 25.522 11.3653C26.143 11.7238 26.6456 11.9493 27.0596 12.123C27.3035 12.2265 27.5179 12.3152 27.7064 12.4002C28.1056 12.585 28.3791 12.7735 28.5935 13.1431C29.0148 13.8787 28.9668 14.9394 28.5861 15.9928L28.6083 16.0002Z" fill="#80FFED"/>
<path d="M28.6082 16.0004C28.5343 16.211 28.4456 16.4217 28.3421 16.6287C28.3421 16.6287 28.3236 16.6657 28.2903 16.7322C28.1388 17.0131 27.6731 17.8373 26.9634 18.5396C25.3519 20.0735 20.8427 19.508 19.416 21.5593C18.3996 23.0266 19.3162 25.3478 20.0369 27.1663C20.9388 29.4505 22.3396 30.9548 23.1934 31.7494C23.4115 39.3708 19.7006 44.926 15.6608 45.5211H15.646C10.3901 45.1145 6.71251 39.5962 6.40943 39.1268C6.40943 39.1158 6.40204 39.1084 6.39834 39.1084C6.13222 38.6759 5.89197 38.2398 5.67391 37.7926C5.65912 37.7667 5.64803 37.7371 5.63325 37.7038C5.60368 37.641 5.56672 37.5523 5.52236 37.4599C5.10471 36.5507 4.78684 35.6156 4.55029 34.6693C4.52072 34.5474 4.49115 34.4291 4.46158 34.3071C5.70347 36.5063 7.44803 38.262 9.52524 39.0492C13.9199 40.7125 18.6361 38.0587 18.5326 37.434C18.4476 36.9351 14.7959 38.3026 11.5063 36.5654C11.0628 36.3326 10.6599 36.0554 10.2866 35.7523C8.16877 36.6283 7.18191 36.388 6.66816 35.9926C5.99177 35.4714 5.81436 34.4217 5.13058 34.3663C4.77945 34.3367 4.47637 34.5843 4.29526 34.7618C3.51908 33.2574 0.97986 27.8907 2.62462 21.3523C3.58191 17.5416 5.55933 14.9248 6.77904 13.5498C6.76795 13.5498 6.75686 13.5388 6.73838 13.5351C6.7236 13.5277 6.70881 13.5203 6.68664 13.5166C6.59793 13.4796 6.45748 13.4242 6.28746 13.3392C6.25419 13.3207 6.22093 13.3022 6.18397 13.2874C6.17657 13.28 6.16549 13.2763 6.16179 13.2726C6.10265 13.2394 6.03612 13.2024 5.97329 13.1654C5.8661 13.1026 5.74783 13.0287 5.63325 12.94C5.59259 12.9104 5.55193 12.8845 5.51128 12.8513C5.42996 12.7884 5.35234 12.7256 5.26733 12.6554C5.18602 12.5852 5.1084 12.5112 5.02709 12.4299C4.97534 12.3782 4.9236 12.3264 4.87185 12.271C4.81271 12.2045 4.74988 12.1379 4.69444 12.064C4.64269 12.0012 4.59095 11.9346 4.5392 11.8644C4.46528 11.7646 4.39875 11.6574 4.33592 11.5466C4.30265 11.4948 4.27308 11.4431 4.24351 11.3876C4.1622 11.2287 4.08458 11.0624 4.01805 10.885C3.53017 9.58023 3.82216 8.42335 3.94413 8.02418C7.44064 8.82993 9.16672 8.50097 10.1018 8.02418C11.0037 7.55847 11.9647 7.19995 12.8074 6.64183C12.9478 6.54943 13.3877 6.27592 14.0123 6.06524C14.2193 5.99502 14.4558 5.94327 14.7922 5.91001C15.0287 5.88783 15.269 5.87305 15.4981 5.87305C15.5868 5.87305 15.6719 5.87305 15.7606 5.88044C15.853 5.88044 15.9528 5.89153 16.0452 5.89892C16.1376 5.90631 16.2337 5.9174 16.3261 5.92849C16.4998 5.94697 16.6698 5.98023 16.8398 6.0135C16.8731 6.02089 16.9063 6.02828 16.9359 6.03198C17.0098 6.05046 17.0801 6.06524 17.154 6.08372C17.2427 6.1022 17.3351 6.12808 17.4238 6.15395C17.5125 6.17613 17.6012 6.2057 17.6899 6.23526C17.6973 6.23526 17.7084 6.23526 17.7158 6.24266C17.7971 6.26853 17.8747 6.2944 17.9523 6.32397C18.0411 6.35354 18.1261 6.3868 18.2148 6.42007C18.2924 6.44594 18.37 6.47551 18.4439 6.50878C18.7137 6.61966 18.9799 6.73793 19.2386 6.87099C19.4049 6.95231 19.5712 7.03732 19.7339 7.12972C19.8189 7.17407 19.8965 7.21843 19.9778 7.26278C20.0591 7.30713 20.1404 7.35149 20.2217 7.40323C20.3068 7.45128 20.3844 7.49933 20.4657 7.54738C20.6912 7.68044 20.9092 7.81719 21.131 7.95765C21.2567 8.03526 21.3786 8.11658 21.5043 8.1942C21.6891 8.31617 21.8739 8.43444 22.0513 8.55272C22.1437 8.61555 22.2361 8.67469 22.3174 8.73383C22.4061 8.78927 22.4838 8.84841 22.5614 8.90385C22.6131 8.9445 22.6649 8.98147 22.7129 9.01843C22.809 9.08865 22.9014 9.15888 22.9827 9.2291C23.0234 9.26237 23.064 9.29563 23.1047 9.3289C23.1195 9.33999 23.1306 9.34738 23.1454 9.36216C23.2008 9.41021 23.2526 9.45087 23.3043 9.49892C23.3302 9.5211 23.356 9.54327 23.3782 9.56545C23.4263 9.6098 23.4706 9.65416 23.515 9.69481C23.5371 9.71329 23.5593 9.73547 23.5778 9.75765C23.6 9.77613 23.6222 9.7983 23.6406 9.81678C23.6591 9.83526 23.6702 9.85005 23.6813 9.86114C23.6924 9.87223 23.6998 9.87962 23.6998 9.87962C23.7183 9.8981 23.77 9.94984 23.8735 10.0533C24.0029 10.179 24.2098 10.3786 24.524 10.678C24.5166 10.678 24.5092 10.6669 24.5055 10.6632C23.5741 10.0053 18.954 6.88947 13.1955 8.16463C10.4493 8.77079 8.50142 10.1383 7.41846 11.0476C8.76015 11.3802 10.3088 11.8755 10.3051 12.4706C10.3051 13.0102 9.03735 13.3429 8.37575 13.6238C4.94947 15.0985 2.19218 22.0657 4.32853 28.0053C5.21929 30.4743 6.76425 32.241 8.34618 33.4792C7.32976 31.8123 6.74947 29.8792 6.39834 28.2086C7.17452 29.188 8.76754 30.9067 11.3215 31.9047C12.7002 32.4406 13.9199 32.5958 14.6037 32.6513C16.1302 32.7696 17.3942 32.5626 18.2369 32.3593C17.494 32.3371 15.7088 32.1782 13.9569 30.94C12.7187 30.064 12.0201 29.0143 11.6727 28.3897C15.1951 29.1806 16.5737 28.5227 17.1909 27.8168C18.7951 25.9946 16.2374 22.6385 18.1298 20.6464C19.3643 19.349 21.9626 18.8907 23.1232 18.8353C24.3836 18.7798 25.9359 18.6394 25.9618 18.3474C25.9729 18.2032 25.6144 18.1441 25.23 17.7856C24.768 17.3531 24.5794 16.7913 24.4944 16.3515C24.6608 16.5585 25.1376 17.0944 25.9285 17.2681C26.1466 17.3162 26.5901 17.4086 27.0891 17.2164C27.4328 17.087 27.6657 16.8985 27.7618 16.7728C28.002 16.4587 28.2534 15.9486 28.5121 15.1613C28.5417 15.4422 28.5712 15.7231 28.6008 16.0041L28.6082 16.0004Z" fill="#80FFED"/>
<path d="M31.4647 16.0002C31.3908 16.2109 31.3021 16.4216 31.1986 16.6286C31.1986 16.6286 31.1801 16.6655 31.1468 16.732C31.1062 16.806 31.047 16.9205 30.962 17.061C30.9288 17.1238 30.8918 17.1867 30.8475 17.2458C30.5629 17.7189 30.2154 18.1624 29.8162 18.5394C28.2047 20.0733 23.6955 19.5078 22.2688 21.5591C21.2524 23.0265 22.169 25.3476 22.8898 27.1661C23.7916 29.4503 25.1924 30.9546 26.0462 31.7493C26.2643 39.3706 22.5534 44.9259 18.5136 45.521C18.5062 45.521 18.5025 45.521 18.4951 45.521C13.9822 46.1641 10.105 40.4462 9.34725 39.2598C9.3066 39.1969 9.27703 39.1489 9.25855 39.123C9.25855 39.1119 9.25116 39.1045 9.24746 39.1045C8.98134 38.6721 8.74109 38.2359 8.52302 37.7887C8.50824 37.7628 8.49715 37.7333 8.48237 37.7C8.4528 37.6372 8.41584 37.5485 8.37148 37.4561C8.3604 37.4339 8.353 37.408 8.34192 37.3858C8.11645 36.8684 7.75793 35.9702 7.46964 34.9279C7.44376 34.8392 7.42159 34.7505 7.39941 34.6618C7.36984 34.5398 7.34027 34.4216 7.3107 34.2996C7.25896 34.0741 7.19982 33.76 7.15177 33.5086C6.87087 32.9431 6.42734 31.9637 6.03555 30.6589C5.40721 28.5633 4.91933 25.6286 5.5181 22.2355C6.29428 17.8076 8.51933 14.8359 9.62816 13.5386C9.61707 13.5386 9.60598 13.5275 9.5875 13.5238C9.57272 13.5164 9.55793 13.509 9.53576 13.5053C9.44705 13.4684 9.3066 13.4129 9.13658 13.3279C9.10331 13.3095 9.07005 13.291 9.03309 13.2762C9.02569 13.2688 9.01461 13.2651 9.01091 13.2614C8.95177 13.2281 8.88524 13.1912 8.82241 13.1542C8.71522 13.0914 8.59695 13.0175 8.48237 12.9288C8.44171 12.8992 8.40105 12.8733 8.3604 12.8401C8.27908 12.7772 8.20146 12.7144 8.11645 12.6442C8.03514 12.5739 7.95752 12.5 7.87621 12.4187C7.82446 12.3669 7.77272 12.3152 7.72097 12.2598C7.66183 12.1932 7.599 12.1267 7.54356 12.0528C7.49181 11.9899 7.44007 11.9234 7.38832 11.8532C7.3144 11.7534 7.24787 11.6462 7.18504 11.5353C7.15177 11.4836 7.1222 11.4318 7.09263 11.3764C7.01132 11.2175 6.9337 11.0511 6.86717 10.8737C6.37929 9.569 6.67128 8.41212 6.79325 8.01295C10.2898 8.8187 12.0158 8.48974 12.951 8.01295C13.8528 7.54724 14.8138 7.18872 15.6565 6.63061C15.7969 6.5382 16.2368 6.26469 16.8614 6.05401C17.0684 5.98379 17.305 5.93204 17.6413 5.89878C17.8779 5.8766 18.1181 5.86182 18.3473 5.86182C18.436 5.86182 18.521 5.86182 18.6097 5.86921C18.7021 5.86921 18.8019 5.8803 18.8943 5.88769C18.9867 5.89508 19.0828 5.90617 19.1752 5.91726C19.3489 5.93574 19.5189 5.969 19.6889 6.00227C19.7222 6.00966 19.7555 6.01705 19.785 6.02075C19.859 6.03923 19.9292 6.05401 20.0031 6.07249C20.0918 6.09097 20.1842 6.11685 20.2729 6.14272C20.3616 6.1649 20.4503 6.19447 20.539 6.22403C20.5464 6.22403 20.5575 6.22403 20.5649 6.23143C20.6462 6.2573 20.7238 6.28317 20.8015 6.31274C20.8902 6.34231 20.9752 6.37557 21.0639 6.40884C21.1415 6.43471 21.2191 6.46428 21.293 6.49755C21.5629 6.60843 21.829 6.7267 22.0877 6.85976C22.254 6.94108 22.4204 7.02609 22.583 7.11849C22.668 7.16284 22.7456 7.2072 22.8269 7.25155C22.9082 7.2959 22.9896 7.34026 23.0709 7.392C23.1559 7.44005 23.2335 7.4881 23.3148 7.53615C23.5403 7.66921 23.7583 7.80596 23.9801 7.94642C24.1058 8.02403 24.2277 8.10535 24.3534 8.18297C24.5382 8.30494 24.723 8.42321 24.9004 8.54149C24.9928 8.60432 25.0852 8.66716 25.1666 8.7226C25.2553 8.77804 25.3329 8.83718 25.4105 8.89262C25.4622 8.93327 25.514 8.97024 25.562 9.0072C25.6581 9.07742 25.7505 9.14765 25.8319 9.21787C25.8725 9.25114 25.9132 9.2844 25.9538 9.31767C25.9686 9.32876 25.9797 9.33615 25.9945 9.35093C26.0499 9.39898 26.1017 9.43964 26.1534 9.48769C26.1793 9.50987 26.2052 9.53204 26.2273 9.55422C26.2754 9.59857 26.3197 9.64293 26.3641 9.68358C26.3863 9.70206 26.4084 9.72424 26.4269 9.74642C26.4639 9.77968 26.4972 9.81664 26.5304 9.84991C26.5415 9.861 26.5489 9.86839 26.5489 9.86839C26.5674 9.88687 26.6191 9.93861 26.7226 10.0421C26.8926 10.2158 27.0516 10.3821 27.2364 10.5559C27.2733 10.5891 27.3066 10.6187 27.3473 10.652C27.3473 10.652 27.362 10.6667 27.3657 10.6704C27.6171 10.8811 27.9312 11.1066 28.3785 11.3653C28.9994 11.7238 29.5021 11.9493 29.916 12.123C30.16 12.2265 30.3744 12.3152 30.5629 12.4002C30.962 12.585 31.2355 12.7735 31.4499 13.1431C31.8713 13.8787 31.8232 14.9394 31.4425 15.9928L31.4647 16.0002Z" fill="white"/>
<path d="M30.5852 12.404C30.1564 14.0783 22.9934 14.8656 17.7486 11.8644C16.1076 10.9256 14.9248 9.77238 14.1006 8.78922C14.825 8.28655 16.0263 7.5806 17.6193 7.20729C19.3343 6.80072 21.1084 6.86725 22.779 7.20729C23.5219 7.62125 24.2353 8.09066 24.9154 8.53419C26.4308 9.52844 26.6525 10.0496 27.3918 10.6705C27.6431 10.8812 27.9573 11.1067 28.4045 11.3654C29.0254 11.7239 29.5281 11.9494 29.9421 12.1231C30.186 12.2266 30.4004 12.3153 30.5889 12.4003L30.5852 12.404Z" fill="white"/>
<path d="M31.1984 16.6322C31.8046 15.3829 31.9783 14.0339 31.4682 13.1505C31.1541 12.6035 30.7105 12.4593 29.9344 12.1304C29.7348 12.4002 29.5869 12.7181 29.5093 13.0063C29.1471 14.3924 30.2448 16.0593 31.1947 16.6359L31.1984 16.6322Z" fill="#211F26"/>
<path d="M26.0352 12.9474C24.7822 12.4263 24.5383 12.223 24.5605 12.1343C24.5863 12.0419 24.9042 12.0973 25.3736 12.0012C25.8689 11.9014 26.2459 11.6871 26.4935 11.517C25.5621 11.2546 24.5494 11.0107 23.4627 10.8C22.62 10.6374 21.8106 10.508 21.0381 10.4082C21.2635 10.8 22.1617 12.271 23.9765 12.807C24.8155 13.0546 25.5547 13.0176 26.0315 12.9474H26.0352Z" fill="#3E00FF"/>
<path d="M31.3354 33.6566C29.5946 41.1523 23.7547 45.9166 18.5137 45.5174C22.5535 44.9223 26.2644 39.3671 26.0463 31.7457C25.1925 30.9511 23.7954 29.4505 22.8899 27.1626C22.1691 25.3441 21.2525 23.0266 22.2689 21.5556C23.6956 19.5043 28.2048 20.0698 29.8163 18.5359C28.2307 20.0956 23.8619 19.8443 22.5387 21.7958C21.5297 23.2743 22.5609 25.588 23.1227 26.8373C25.1408 31.3614 29.8016 33.1429 31.3354 33.6529V33.6566Z" fill="#211F26"/>
<path d="M31.4646 16.0004C31.3907 16.211 31.302 16.4217 31.1985 16.6287C31.1985 16.6287 31.18 16.6657 31.1468 16.7322C30.9952 17.0131 30.5295 17.8373 29.8199 18.5396C28.2084 20.0735 23.6991 19.508 22.2724 21.5593C21.256 23.0266 22.1726 25.3478 22.8934 27.1663C23.7952 29.4505 25.1961 30.9548 26.0499 31.7494C26.2679 39.3708 22.557 44.926 18.5172 45.5211H18.5024C13.2466 45.1145 9.56895 39.5962 9.26587 39.1268C9.26587 39.1158 9.25848 39.1084 9.25479 39.1084C8.98867 38.6759 8.74842 38.2398 8.53035 37.7926C8.51557 37.7667 8.50448 37.7371 8.48969 37.7038C8.46012 37.641 8.42316 37.5523 8.37881 37.4599C7.96115 36.5507 7.64329 35.6156 7.40674 34.6693C7.37717 34.5474 7.3476 34.4291 7.31803 34.3071C8.55992 36.5063 10.3045 38.262 12.3817 39.0492C16.7763 40.7125 21.4926 38.0587 21.3891 37.434C21.3041 36.9351 17.6523 38.3026 14.3628 36.5654C13.9193 36.3326 13.5164 36.0554 13.1431 35.7523C11.0252 36.6283 10.0384 36.388 9.5246 35.9926C8.84821 35.4714 8.6708 34.4217 7.98702 34.3663C7.63589 34.3367 7.33281 34.5843 7.15171 34.7618C6.37552 33.2574 3.83631 27.8907 5.48107 21.3523C6.43836 17.5416 8.41577 14.9248 9.63548 13.5498C9.62439 13.5498 9.61331 13.5388 9.59483 13.5351C9.58004 13.5277 9.56526 13.5203 9.54308 13.5166C9.45437 13.4796 9.31392 13.4242 9.1439 13.3392C9.11064 13.3207 9.07737 13.3022 9.04041 13.2874C9.03302 13.28 9.02193 13.2763 9.01823 13.2726C8.9591 13.2394 8.89257 13.2024 8.82973 13.1654C8.72255 13.1026 8.60427 13.0287 8.48969 12.94C8.44904 12.9104 8.40838 12.8845 8.36772 12.8513C8.28641 12.7884 8.20879 12.7256 8.12378 12.6554C8.04246 12.5852 7.96485 12.5112 7.88353 12.4299C7.83179 12.3782 7.78004 12.3264 7.7283 12.271C7.66916 12.2045 7.60633 12.1379 7.55088 12.064C7.49914 12.0012 7.44739 11.9346 7.39565 11.8644C7.32173 11.7646 7.2552 11.6574 7.19236 11.5466C7.1591 11.4948 7.12953 11.4431 7.09996 11.3876C7.01865 11.2287 6.94103 11.0624 6.8745 10.885C6.38661 9.58023 6.6786 8.42335 6.80058 8.02418C10.2971 8.82993 12.0232 8.50097 12.9583 8.02418C13.8601 7.55847 14.8211 7.19995 15.6638 6.64183C15.8043 6.54943 16.2441 6.27592 16.8687 6.06524C17.0757 5.99502 17.3123 5.94327 17.6486 5.91001C17.8852 5.88783 18.1254 5.87305 18.3546 5.87305C18.4433 5.87305 18.5283 5.87305 18.617 5.88044C18.7094 5.88044 18.8092 5.89153 18.9016 5.89892C18.994 5.90631 19.0901 5.9174 19.1825 5.92849C19.3562 5.94697 19.5262 5.98023 19.6963 6.0135C19.7295 6.02089 19.7628 6.02828 19.7924 6.03198C19.8663 6.05046 19.9365 6.06524 20.0104 6.08372C20.0991 6.1022 20.1915 6.12808 20.2802 6.15395C20.369 6.17613 20.4577 6.2057 20.5464 6.23526C20.5538 6.23526 20.5648 6.23526 20.5722 6.24266C20.6536 6.26853 20.7312 6.2944 20.8088 6.32397C20.8975 6.35354 20.9825 6.3868 21.0712 6.42007C21.1488 6.44594 21.2264 6.47551 21.3004 6.50878C21.5702 6.61966 21.8363 6.73793 22.095 6.87099C22.2614 6.95231 22.4277 7.03732 22.5903 7.12972C22.6753 7.17407 22.7529 7.21843 22.8342 7.26278C22.9156 7.30713 22.9969 7.35149 23.0782 7.40323C23.1632 7.45128 23.2408 7.49933 23.3221 7.54738C23.5476 7.68044 23.7657 7.81719 23.9874 7.95765C24.1131 8.03526 24.2351 8.11658 24.3607 8.1942C24.5455 8.31617 24.7303 8.43444 24.9078 8.55272C25.0002 8.61555 25.0926 8.67469 25.1739 8.73383C25.2626 8.78927 25.3402 8.84841 25.4178 8.90385C25.4696 8.9445 25.5213 8.98147 25.5694 9.01843C25.6655 9.08865 25.7579 9.15888 25.8392 9.2291C25.8798 9.26237 25.9205 9.29563 25.9611 9.3289C25.9759 9.33999 25.987 9.34738 26.0018 9.36216C26.0572 9.41021 26.109 9.45087 26.1607 9.49892C26.1866 9.5211 26.2125 9.54327 26.2347 9.56545C26.2827 9.6098 26.3271 9.65416 26.3714 9.69481C26.3936 9.71329 26.4158 9.73547 26.4342 9.75765C26.4564 9.77613 26.4786 9.7983 26.4971 9.81678C26.5156 9.83526 26.5267 9.85005 26.5377 9.86114C26.5488 9.87223 26.5562 9.87962 26.5562 9.87962C26.5747 9.8981 26.6264 9.94984 26.7299 10.0533C26.8593 10.179 27.0663 10.3786 27.3805 10.678C27.3731 10.678 27.3657 10.6669 27.362 10.6632C26.4306 10.0053 21.8104 6.88947 16.0519 8.16463C13.3057 8.77079 11.3579 10.1383 10.2749 11.0476C11.6166 11.3802 13.1653 11.8755 13.1616 12.4706C13.1616 13.0102 11.8938 13.3429 11.2322 13.6238C7.80591 15.0985 5.04863 22.0657 7.18497 28.0053C8.07573 30.4743 9.6207 32.241 11.2026 33.4792C10.1862 31.8123 9.60591 29.8792 9.25479 28.2086C10.031 29.188 11.624 30.9067 14.178 31.9047C15.5566 32.4406 16.7763 32.5958 17.4601 32.6513C18.9866 32.7696 20.2507 32.5626 21.0934 32.3593C20.3505 32.3371 18.5653 32.1782 16.8133 30.94C15.5751 30.064 14.8766 29.0143 14.5291 28.3897C18.0515 29.1806 19.4301 28.5227 20.0474 27.8168C21.6515 25.9946 19.0938 22.6385 20.9862 20.6464C22.2207 19.349 24.8191 18.8907 25.9796 18.8353C27.24 18.7798 28.7924 18.6394 28.8182 18.3474C28.8293 18.2032 28.4708 18.1441 28.0864 17.7856C27.6244 17.3531 27.4359 16.7913 27.3509 16.3515C27.5172 16.5585 27.994 17.0944 28.785 17.2681C29.003 17.3162 29.4466 17.4086 29.9455 17.2164C30.2893 17.087 30.5221 16.8985 30.6182 16.7728C30.8585 16.4587 31.1098 15.9486 31.3685 15.1613C31.3981 15.4422 31.4277 15.7231 31.4572 16.0041L31.4646 16.0004Z" fill="#211F26"/>
<path d="M8.93671 18.2031H3.9248V23.215H8.93671V18.2031Z" fill="white"/>
<path d="M25.2108 21.8955H21.877V24.8561H25.2108V21.8955Z" fill="#211F26"/>
<path d="M11.783 15.1169H9.68359V17.2163H11.783V15.1169Z" fill="#211F26"/>
<path d="M30.2189 24.8562H25.207V27.2476H30.2189V24.8562Z" fill="#211F26"/>
<path d="M4.10226 22.9526H0.62793V26.427H4.10226V22.9526Z" fill="white"/>
</g>
</g>
<defs>
<clipPath id="clip0_2795_14200">
<rect width="36" height="36" fill="white"/>
</clipPath>
</defs>
</svg>
