<svg width="17" height="17" viewBox="0 0 17 17" fill="none" xmlns="http://www.w3.org/2000/svg">
<path d="M9.868 15.0813C9.868 15.0809 9.86791 15.0806 9.86775 15.0803L9.68239 14.7476C9.12262 13.7429 7.67738 13.7429 7.11761 14.7476L6.932 15.0807C6.79939 15.3185 6.58116 15.492 6.32523 15.5631C6.06929 15.6343 5.79659 15.5972 5.567 15.4601L3.834 14.4236C3.60433 14.2862 3.43674 14.0598 3.3681 13.7942C3.29946 13.5287 3.3354 13.2458 3.468 13.0078L3.69348 12.6031C4.25055 11.6032 3.52768 10.373 2.38314 10.373H2C1.73478 10.373 1.48043 10.2638 1.29289 10.0694C1.10536 9.87503 1 9.61139 1 9.33649V7.26351C1 6.98861 1.10536 6.72497 1.29289 6.53059C1.48043 6.33621 1.73478 6.22701 2 6.22701H2.38314C3.52768 6.22701 4.25055 4.99676 3.69348 3.99694L3.468 3.59224C3.40219 3.47432 3.35944 3.34411 3.34222 3.20906C3.325 3.074 3.33363 2.93675 3.36762 2.80516C3.40161 2.67356 3.4603 2.55021 3.54033 2.44214C3.62035 2.33407 3.72015 2.24342 3.834 2.17536L5.566 1.13886C5.79568 1.00142 6.06863 0.964174 6.3248 1.03532C6.58097 1.10646 6.79939 1.28016 6.932 1.51822L7.08998 1.80188C7.66179 2.82857 9.13859 2.82878 9.7107 1.80226L9.869 1.51822C10.0016 1.28044 10.2198 1.10694 10.4758 1.03581C10.7317 0.964687 11.0044 1.00175 11.234 1.13886L12.967 2.17536C13.1964 2.3128 13.3638 2.539 13.4324 2.80427C13.501 3.06955 13.4653 3.3522 13.333 3.59017L13.1064 3.997C12.5493 4.99682 13.2722 6.22701 14.4167 6.22701H14.8C15.0652 6.22701 15.3196 6.33621 15.5071 6.53059C15.6946 6.72497 15.8 6.98861 15.8 7.26351V9.33649C15.8 9.61139 15.6946 9.87503 15.5071 10.0694C15.3196 10.2638 15.0652 10.373 14.8 10.373H14.4164C13.2719 10.373 12.5491 11.603 13.1059 12.6028L13.332 13.0088C13.4646 13.2469 13.5005 13.5298 13.4319 13.7953C13.3633 14.0608 13.1957 14.2872 12.966 14.4246L11.234 15.4611C11.0043 15.5986 10.7314 15.6358 10.4752 15.5647C10.2192 15.4936 10.0009 15.3201 9.86825 15.0822C9.86809 15.0819 9.868 15.0816 9.868 15.0813V15.0813Z" stroke="currentColor" stroke-width="1.5" stroke-linejoin="round"/>
<circle cx="8.40039" cy="8.32227" r="2.25" stroke="currentColor" stroke-width="1.5"/>
</svg>
