<svg width="16" height="4" viewBox="0 0 16 4" fill="none" xmlns="http://www.w3.org/2000/svg">
<path d="M2 0.5C1.17383 0.5 0.5 1.17383 0.5 2C0.5 2.82617 1.17383 3.5 2 3.5C2.82617 3.5 3.5 2.82617 3.5 2C3.5 1.17383 2.82617 0.5 2 0.5ZM8 0.5C7.17383 0.5 6.5 1.17383 6.5 2C6.5 2.82617 7.17383 3.5 8 3.5C8.82617 3.5 9.5 2.82617 9.5 2C9.5 1.17383 8.82617 0.5 8 0.5ZM14 0.5C13.1738 0.5 12.5 1.17383 12.5 2C12.5 2.82617 13.1738 3.5 14 3.5C14.8262 3.5 15.5 2.82617 15.5 2C15.5 1.17383 14.8262 0.5 14 0.5Z" fill="#172025"/>
</svg>
