<svg width="16" height="16" viewBox="0 0 16 16" fill="none" xmlns="http://www.w3.org/2000/svg">
<path d="M12.6663 9.33341C13.4027 9.33341 13.9997 8.73646 13.9997 8.00008C13.9997 7.2637 13.4027 6.66675 12.6663 6.66675C11.93 6.66675 11.333 7.2637 11.333 8.00008C11.333 8.73646 11.93 9.33341 12.6663 9.33341Z" stroke="currentColor" stroke-linecap="round" stroke-linejoin="round"/>
<path d="M12.6663 4.66667C13.4027 4.66667 13.9997 4.06971 13.9997 3.33333C13.9997 2.59695 13.4027 2 12.6663 2C11.93 2 11.333 2.59695 11.333 3.33333C11.333 4.06971 11.93 4.66667 12.6663 4.66667Z" stroke="currentColor" stroke-linecap="round" stroke-linejoin="round"/>
<path d="M12.6663 13.9999C13.4027 13.9999 13.9997 13.403 13.9997 12.6666C13.9997 11.9302 13.4027 11.3333 12.6663 11.3333C11.93 11.3333 11.333 11.9302 11.333 12.6666C11.333 13.403 11.93 13.9999 12.6663 13.9999Z" stroke="currentColor" stroke-linecap="round" stroke-linejoin="round"/>
<path d="M3.33333 9.33341C4.06971 9.33341 4.66667 8.73646 4.66667 8.00008C4.66667 7.2637 4.06971 6.66675 3.33333 6.66675C2.59695 6.66675 2 7.2637 2 8.00008C2 8.73646 2.59695 9.33341 3.33333 9.33341Z" stroke="currentColor" stroke-linecap="round" stroke-linejoin="round"/>
<path d="M4.66699 8H11.3337" stroke="currentColor" stroke-linecap="round" stroke-linejoin="round"/>
<path d="M11.333 3.33325H9.04729C7.90444 3.33325 7.33301 3.91659 7.33301 5.08325V10.9166C7.33301 12.0833 7.90444 12.6666 9.04729 12.6666H11.333" stroke="currentColor" stroke-linecap="round" stroke-linejoin="round"/>
</svg>
