<svg width="16" height="16" viewBox="0 0 16 16" fill="none" xmlns="http://www.w3.org/2000/svg">
<path d="M6.89544 2.32279L3.48663 4.71066C2.39378 5.47624 2.39378 7.18967 3.48663 7.95525L6.89544 10.3431C7.50698 10.7745 8.5149 10.7745 9.12645 10.3431L12.5183 7.95525C13.6055 7.18967 13.6055 5.48231 12.5183 4.71674L9.12645 2.32887C8.5149 1.8914 7.50698 1.8914 6.89544 2.32279Z" stroke="currentColor" stroke-linecap="round" stroke-linejoin="round"/>
<path d="M4.00627 8.66675L4 11.4725C4 12.2323 4.61442 13.0459 5.36677 13.2852L7.36677 13.9193C7.7116 14.027 8.28213 14.027 8.63323 13.9193L10.6332 13.2852C11.3856 13.0459 12 12.2323 12 11.4725V8.69666" stroke="currentColor" stroke-linecap="round" stroke-linejoin="round"/>
<path d="M13.333 10V6" stroke="currentColor" stroke-linecap="round" stroke-linejoin="round"/>
</svg>
