<svg width="24" height="24" viewBox="0 0 24 24" fill="none" xmlns="http://www.w3.org/2000/svg">
<path d="M17.537 13.4207C17.152 13.7965 16.932 14.3373 16.987 14.9148C17.0695 15.9048 17.977 16.629 18.967 16.629H20.7087V17.7198C20.7087 19.6173 19.1595 21.1665 17.262 21.1665H6.73866C4.84116 21.1665 3.29199 19.6173 3.29199 17.7198V11.5507C3.29199 9.65318 4.84116 8.104 6.73866 8.104H17.262C19.1595 8.104 20.7087 9.65318 20.7087 11.5507V12.8707H18.857C18.3437 12.8707 17.8762 13.0723 17.537 13.4207Z" stroke="currentColor" stroke-width="1.5" stroke-linecap="round" stroke-linejoin="round"/>
<path d="M3.29199 12.3757V8.18658C3.29199 7.09575 3.96116 6.12404 4.97866 5.73904L12.257 2.98904C13.3937 2.55821 14.6128 3.40157 14.6128 4.62073V8.10405" stroke="currentColor" stroke-width="1.5" stroke-linecap="round" stroke-linejoin="round"/>
<path d="M21.6792 13.8061V15.6944C21.6792 16.1986 21.2759 16.6111 20.7626 16.6294H18.9659C17.9759 16.6294 17.0684 15.9052 16.9859 14.9152C16.9309 14.3377 17.1509 13.7969 17.5359 13.4211C17.8751 13.0727 18.3426 12.8711 18.8559 12.8711H20.7626C21.2759 12.8894 21.6792 13.3019 21.6792 13.8061Z" stroke="currentColor" stroke-width="1.5" stroke-linecap="round" stroke-linejoin="round"/>
<path d="M7.41699 12H13.8337" stroke="currentColor" stroke-width="1.5" stroke-linecap="round" stroke-linejoin="round"/>
</svg>
