<?xml version="1.0" encoding="UTF-8"?>
<svg id="_Слой_2" data-name="Слой 2" xmlns="http://www.w3.org/2000/svg" viewBox="0 0 412.52 111.12">
  <defs>
    <style>
      .cls-1 {
        fill: #fff;
      }

      .cls-1, .cls-2 {
        fill-rule: evenodd;
      }

      .cls-3 {
        fill: #566164;
      }

      .cls-4, .cls-2 {
        fill: #1dc3cf;
      }
    </style>
  </defs>
  <g id="_Слой_1-2" data-name="Слой 1">
    <g>
      <g>
        <path class="cls-4" d="m134.43,84.98v-39.07h-7.23v-9.52h7.23v-4.13c0-5.45,1.56-9.68,4.69-12.68,3.13-3.01,7.51-4.51,13.13-4.51,1.8,0,4,.3,6.6.9l-.13,10.06c-1.08-.27-2.39-.4-3.95-.4-4.88,0-7.32,2.29-7.32,6.87v3.91h9.65v9.52h-9.65v39.07h-13.02Z"/>
        <path class="cls-4" d="m163.75,23.82c0-1.95.65-3.55,1.95-4.8,1.3-1.26,3.08-1.89,5.32-1.89s3.98.63,5.3,1.89c1.32,1.26,1.98,2.86,1.98,4.8s-.67,3.59-2,4.85c-1.33,1.26-3.09,1.89-5.28,1.89s-3.94-.63-5.28-1.89c-1.33-1.26-2-2.87-2-4.85Zm13.79,61.16h-13.02v-48.59h13.02v48.59Z"/>
        <path class="cls-4" d="m214.54,71.55c0-1.59-.79-2.84-2.36-3.75-1.57-.91-4.09-1.73-7.57-2.45-11.56-2.42-17.33-7.33-17.33-14.73,0-4.31,1.79-7.91,5.37-10.8,3.58-2.89,8.25-4.33,14.03-4.33,6.17,0,11.1,1.45,14.8,4.36,3.7,2.9,5.55,6.68,5.55,11.32h-12.98c0-1.86-.6-3.39-1.8-4.6-1.2-1.21-3.07-1.82-5.61-1.82-2.19,0-3.88.49-5.07,1.48-1.2.99-1.8,2.25-1.8,3.77,0,1.44.68,2.6,2.04,3.48,1.36.88,3.66,1.65,6.89,2.29,3.23.64,5.96,1.37,8.17,2.18,6.85,2.51,10.28,6.87,10.28,13.07,0,4.43-1.9,8.02-5.7,10.75-3.8,2.74-8.71,4.11-14.73,4.11-4.07,0-7.69-.73-10.84-2.18-3.16-1.45-5.64-3.44-7.43-5.97-1.8-2.53-2.69-5.26-2.69-8.19h12.3c.12,2.3.97,4.07,2.56,5.3,1.59,1.23,3.71,1.84,6.38,1.84,2.48,0,4.36-.47,5.64-1.42,1.27-.94,1.91-2.18,1.91-3.7Z"/>
        <path class="cls-4" d="m248.17,41.69c3.44-4.13,7.77-6.2,12.98-6.2,10.54,0,15.88,6.12,16.03,18.37v31.12h-12.98v-30.76c0-2.78-.6-4.84-1.8-6.17-1.2-1.33-3.19-2-5.97-2-3.8,0-6.56,1.47-8.26,4.4v34.53h-12.98V16h12.98v25.69Z"/>
        <path class="cls-4" d="m298.91,36.39l.4,5.61c3.47-4.34,8.13-6.51,13.96-6.51,5.15,0,8.98,1.51,11.5,4.54,2.51,3.02,3.8,7.54,3.86,13.56v31.39h-12.98v-31.07c0-2.75-.6-4.75-1.8-5.99-1.2-1.24-3.19-1.86-5.97-1.86-3.65,0-6.39,1.56-8.22,4.67v34.26h-12.98v-48.59h12.21Z"/>
        <path class="cls-4" d="m360.83,85.87c-7.12,0-12.92-2.19-17.4-6.56-4.48-4.37-6.71-10.19-6.71-17.47v-1.26c0-4.88.94-9.24,2.83-13.09,1.89-3.85,4.56-6.81,8.02-8.89,3.46-2.08,7.4-3.12,11.83-3.12,6.65,0,11.88,2.1,15.69,6.29,3.82,4.19,5.73,10.13,5.73,17.83v5.3h-30.94c.42,3.17,1.68,5.72,3.79,7.63,2.11,1.92,4.78,2.87,8.02,2.87,5,0,8.91-1.81,11.72-5.43l6.38,7.14c-1.95,2.75-4.58,4.9-7.9,6.44-3.32,1.54-7,2.31-11.05,2.31Zm-1.48-39.92c-2.58,0-4.66.87-6.26,2.62-1.6,1.74-2.63,4.24-3.08,7.49h18.05v-1.04c-.06-2.89-.84-5.12-2.33-6.7-1.5-1.58-3.62-2.37-6.38-2.37Z"/>
        <path class="cls-4" d="m403.71,24.45v11.94h8.31v9.52h-8.31v24.25c0,1.8.34,3.08,1.03,3.86.69.78,2,1.17,3.95,1.17,1.44,0,2.71-.1,3.82-.31v9.83c-2.54.78-5.16,1.17-7.86,1.17-9.1,0-13.74-4.6-13.92-13.79v-26.18h-7.09v-9.52h7.09v-11.94h12.98Z"/>
      </g>
      <g>
        <path class="cls-2" d="m55.56,111.12c30.6,0,55.56-24.96,55.56-55.56S86.16,0,55.56,0,0,24.96,0,55.56s24.96,55.56,55.56,55.56Z"/>
        <path class="cls-1" d="m111.09,53.85c.02.57.03,1.14.03,1.71v.08c-.42.21-.84.41-1.25.58-.49.21-1,.41-1.53.59-2.54.88-5.02,1.22-7.34,1.09-1.79-.1-3.49-.49-5.04-1.13-.24.18-.51.31-.82.36-.49,2.91-1.48,5.78-2.92,8.41-1.64,3-3.86,5.7-6.58,7.8-.73.56-1.49,1.08-2.26,1.55-.44.27-.89.52-1.34.75,1.58,1.13,3.44,1.89,5.47,2.23,2.59.44,5.48.19,8.46-.84,2.74-.95,5.27-2.47,7.46-4.37,2.29-1.98,4.21-4.38,5.63-7,.14-.26.27-.51.39-.75.12-.23.24-.49.36-.76.13-.29.41-.47.71-.51-.22,1.5-.49,2.98-.83,4.43-1.39,2.19-3.11,4.2-5.09,5.91h0c-2.35,2.05-5.07,3.68-8.03,4.7-3.27,1.14-6.46,1.4-9.34.91-2.34-.39-4.47-1.28-6.29-2.59-.49,2.94-1.48,5.84-2.93,8.49-1.51,2.77-3.51,5.27-5.95,7.29v-2.37c1.75-1.67,3.22-3.63,4.39-5.76.89-1.63,1.6-3.35,2.11-5.12-1.11,1.61-2.4,3.11-3.85,4.45-.83.77-1.72,1.5-2.64,2.16v-2.22c.49-.39.97-.8,1.43-1.23,2-1.86,3.7-4.05,4.98-6.41-.24-.32-.38-.72-.38-1.15,0-1.07.87-1.95,1.95-1.95.61,0,1.15.28,1.51.71.3-.16.6-.33.89-.51.71-.43,1.41-.91,2.1-1.43,2.52-1.94,4.59-4.45,6.11-7.25.89-1.62,1.59-3.35,2.1-5.11-.92,1.07-1.92,2.07-3,2.98-2.24,1.88-4.79,3.39-7.56,4.35-3.19,1.11-6.3,1.37-9.11.89-.35-.06-.69-.13-1.02-.21v-1.82c.42.12.86.21,1.3.29,2.52.43,5.33.19,8.23-.82,2.56-.89,4.94-2.29,7.01-4.04,1.72-1.45,3.24-3.15,4.5-5-.17-.29-.27-.63-.27-1,0-1.07.87-1.95,1.95-1.95s1.93.85,1.95,1.91c1.34.54,2.81.87,4.36.96,2.1.12,4.35-.19,6.66-.99.46-.16.93-.34,1.41-.55.48-.21.95-.43,1.38-.65.18-.09.37-.12.55-.09h0Zm-39.02,40.25v2.06c1.74.99,3.69,1.68,5.77,2.03,3.34.56,7.04.26,10.85-1.06,2.65-.92,5.27-2.25,7.71-3.91,2.35-2.55,4.46-5.31,6.3-8.26-1.2,1.56-2.6,3.02-4.14,4.36-3.12,2.71-6.78,4.86-10.48,6.14-3.51,1.22-6.91,1.5-9.97.99-2.23-.37-4.27-1.17-6.05-2.35Zm0-1.32c-.21.17-.42.34-.63.51l-.1.08c0,.06-.02.13-.04.19.25.19.51.37.77.55v2.06c-.67-.38-1.31-.8-1.92-1.27-.23.1-.48.15-.74.15-2.92,5.19-8.32,10.03-14.12,13.37-1.63.94-3.3,1.77-4.96,2.45-1.3-.12-2.58-.29-3.85-.5,2.56-.76,5.27-1.96,7.91-3.48,5.53-3.19,10.67-7.78,13.44-12.66-.23-.32-.37-.71-.37-1.14,0-1.07.87-1.95,1.95-1.95.49,0,.94.18,1.28.48.48-.38.94-.79,1.38-1.21v2.37h0Zm0-6.65v-2.22c-2,1.59-4.25,2.87-6.67,3.71-2.98,1.03-5.87,1.28-8.46.84-2.08-.35-3.97-1.14-5.57-2.3.01-.04.02-.09.03-.14.78-.29,1.56-.63,2.33-1.02,1.27-.65,2.52-1.43,3.7-2.35,2.72-2.1,4.94-4.79,6.58-7.8,1.61-2.96,2.67-6.22,3.08-9.5,1.47,1.03,3.15,1.79,4.97,2.22v-1.82c-1.5-.4-2.87-1.06-4.08-1.93.03-.14.05-.29.05-.44,0-1.07-.87-1.95-1.95-1.95s-1.95.87-1.95,1.95c0,.43.14.83.38,1.15-1.25,2.29-2.89,4.4-4.83,6.2-2.27,2.11-4.95,3.79-7.88,4.81-2.9,1.01-5.71,1.24-8.23.82-2-.34-3.83-1.09-5.38-2.21.03-.14.05-.29.05-.44,0-1.07-.87-1.95-1.95-1.95s-1.95.87-1.95,1.95c0,.43.14.83.38,1.15-1.25,2.29-2.89,4.4-4.83,6.2-2.27,2.11-4.95,3.79-7.88,4.81-2.31.8-4.56,1.11-6.66.99-2.15-.12-4.15-.71-5.87-1.69-.3-.17-.65-.15-.91.02.48.76.97,1.5,1.49,2.23,1.6.68,3.35,1.1,5.21,1.2,2.32.13,4.8-.21,7.34-1.09,3.17-1.1,6.05-2.91,8.5-5.18,1.28-1.19,2.43-2.5,3.45-3.91-.27,1.49-.68,2.96-1.21,4.38-1.12,2.98-2.81,5.76-5.04,8.03-1.29,1.32-3.11,2.56-5.02,3.58-1.77.94-3.6,1.7-5.16,2.14.51.46,1.03.92,1.55,1.36,1.42-.48,2.96-1.15,4.46-1.95,2.05-1.1,4.03-2.45,5.45-3.9,2.4-2.46,4.22-5.44,5.43-8.64.95-2.52,1.51-5.18,1.68-7.83.13-.03.25-.07.37-.12,1.8,1.32,3.91,2.21,6.23,2.6,2.81.47,5.92.22,9.11-.89,3.17-1.1,6.05-2.91,8.5-5.18,1.55-1.44,2.92-3.06,4.07-4.81-.51,2.34-1.36,4.64-2.52,6.77-1.53,2.8-3.59,5.31-6.11,7.25-1.1.85-2.25,1.57-3.42,2.17-.68.35-1.37.65-2.06.9-.35-.35-.84-.57-1.38-.57-1.07,0-1.95.87-1.95,1.95,0,.43.14.83.38,1.15-1.29,2.36-2.98,4.55-4.99,6.41-2.33,2.17-5.09,3.9-8.1,4.94-3.25,1.13-7.1,1.65-10.56,1.37-1.17-.09-2.28-.28-3.31-.56,1.01.81,2.05,1.58,3.12,2.31h.07c3.7.31,7.82-.25,11.28-1.45,3.25-1.13,6.21-2.98,8.71-5.31,1.52-1.41,2.87-3,4.02-4.71-.52,2.15-1.32,4.26-2.4,6.23-1.53,2.8-3.59,5.31-6.11,7.25-1.91,1.47-3.97,2.57-6.03,3.26.79.34,1.58.66,2.39.96,1.63-.72,3.23-1.67,4.73-2.83,2.72-2.1,4.94-4.79,6.58-7.8,1.59-2.91,2.63-6.11,3.06-9.33,1.82,1.31,3.95,2.19,6.28,2.59,2.88.49,6.06.22,9.34-.91,2.17-.75,4.21-1.83,6.07-3.15Z"/>
        <path class="cls-1" d="m35.01,56c-.08.03-.37-.37-.77-.98,9.67.42,18.14,0,25.41-1.23h0c.47,3.33.11,7.59-.12,8.55,6.4-3.13,9.24-3.51,14.65-11.7.3-.46.66-1.01,1.05-1.64,11.17-5.54,16.93-14.81,17.28-27.81-7.29-1.07-14.13-1.16-20.52-.26-3.23.45-6.34,1.15-9.34,2.11-2.47-.26-4.52-.21-5.59-.13-11.54.83-23.64,4.72-32.09,11.02,1.86,1.04,8.76,4.16,9.47,6.53l2.95-.59c-2.47,2.78-4.8,5.86-7,9.23h0c-8.44,1.28-17.56,5.66-19.56,6.74-4.17,2.25-6.98,4.25-6.98,4.25,0,0,6.96-.02,10.35,1.39,3.39,1.41,6.29,3.7,6.29,3.7,2.19-.71,7.07,1.93,9.84,3.15,2.25.99,1.93.89,2.35-1.11l2.34-11.21Z"/>
        <g>
          <path class="cls-2" d="m76.94,24.08c2.82.04,5.07,2.39,5.04,5.26-.04,2.87-2.35,5.16-5.17,5.13-2.82-.04-5.07-2.39-5.04-5.26.04-2.87,2.35-5.16,5.17-5.13Z"/>
          <g>
            <path class="cls-1" d="m77.55,27.1c.79-.4,1.82.02,2.29.95.47.93.21,2.01-.58,2.41s-1.82-.02-2.29-.95c-.47-.93-.21-2.01.58-2.41Z"/>
            <path class="cls-1" d="m73.45,25.38c-.15-.03-.25-.19-.22-.34.03-.15.19-.25.34-.22.27.06.55.13.82.21,2.05.6,3.66,1.72,4.65,3.25.99,1.53,1.34,3.46.87,5.67-.05.25-.12.51-.2.77-.04.15-.2.24-.35.19-.15-.04-.24-.2-.19-.35.07-.24.13-.49.18-.73.44-2.05.11-3.83-.79-5.24-.91-1.41-2.41-2.45-4.33-3.01-.25-.07-.51-.14-.78-.19Z"/>
            <path class="cls-1" d="m82.37,27.19c.15-.06.31.02.37.17.06.15-.02.31-.17.37-1.52.58-3.06,1.23-4.66,2.06-1.6.83-3.24,1.84-4.96,3.15-.13.1-.31.07-.4-.05s-.07-.31.05-.4c1.75-1.33,3.42-2.36,5.04-3.2,1.62-.84,3.19-1.49,4.72-2.09Z"/>
          </g>
        </g>
      </g>
      <g>
        <path class="cls-3" d="m304.76,30.23c-1.56,0-2.98-.43-4.27-1.3-1.28-.86-2.31-2.04-3.08-3.53-.77-1.49-1.15-3.17-1.15-5.04s.39-3.58,1.17-5.06c.78-1.48,1.84-2.63,3.17-3.47,1.33-.84,2.83-1.26,4.48-1.26.98,0,1.88.14,2.7.43.82.29,1.53.69,2.14,1.21.61.52,1.12,1.11,1.51,1.78.4.67.64,1.39.74,2.16l-.83-.29v-4.9h3.74v18.9h-3.74v-4.5l.86-.25c-.14.65-.44,1.28-.88,1.89-.44.61-1.01,1.16-1.69,1.64-.68.48-1.44.86-2.27,1.15-.83.29-1.7.43-2.61.43Zm.97-3.42c1.13,0,2.12-.28,2.99-.83.86-.55,1.54-1.31,2.03-2.29.49-.97.74-2.08.74-3.33s-.25-2.32-.74-3.28c-.49-.96-1.17-1.72-2.03-2.27-.86-.55-1.86-.83-2.99-.83s-2.08.28-2.93.83c-.85.55-1.52,1.31-2.02,2.27-.49.96-.74,2.05-.74,3.28s.25,2.36.74,3.33c.49.97,1.16,1.73,2.02,2.29.85.55,1.83.83,2.93.83Z"/>
        <path class="cls-3" d="m319.45,29.87V3.23h3.71v26.64h-3.71Z"/>
        <path class="cls-3" d="m327.51,37.79V10.97h3.74v4.32l-.58-.32c.14-.72.55-1.41,1.22-2.07.67-.66,1.49-1.2,2.47-1.62.97-.42,1.97-.63,3.01-.63,1.7,0,3.22.42,4.54,1.26,1.32.84,2.36,1.99,3.13,3.46.77,1.46,1.15,3.14,1.15,5.04s-.38,3.55-1.13,5.02c-.76,1.48-1.79,2.64-3.11,3.49-1.32.85-2.81,1.28-4.46,1.28-1.1,0-2.17-.22-3.2-.67-1.03-.44-1.91-1.01-2.63-1.71-.72-.7-1.17-1.42-1.33-2.16l.94-.5v12.64h-3.74Zm9.36-11.02c1.1,0,2.09-.28,2.95-.83.86-.55,1.55-1.31,2.05-2.27.5-.96.76-2.05.76-3.28s-.25-2.31-.74-3.26c-.49-.95-1.17-1.7-2.03-2.25-.86-.55-1.86-.83-2.99-.83s-2.12.27-2.99.81-1.55,1.29-2.05,2.25c-.5.96-.76,2.05-.76,3.28s.25,2.32.76,3.28c.5.96,1.19,1.72,2.05,2.27.86.55,1.86.83,2.99.83Z"/>
        <path class="cls-3" d="m349.33,29.87V3.23h3.71v11.63l-.65.43c.24-.84.71-1.61,1.4-2.32.7-.71,1.52-1.28,2.48-1.73.96-.44,1.94-.67,2.95-.67,1.44,0,2.64.28,3.6.85.96.56,1.68,1.42,2.16,2.57.48,1.15.72,2.6.72,4.36v11.52h-3.71v-11.27c0-1.08-.14-1.97-.43-2.68-.29-.71-.73-1.22-1.33-1.55-.6-.32-1.34-.46-2.23-.41-.72,0-1.38.11-1.98.34-.6.23-1.12.55-1.57.95-.44.41-.79.88-1.04,1.42-.25.54-.38,1.12-.38,1.75v11.45h-3.71Z"/>
        <path class="cls-3" d="m377.12,30.23c-1.56,0-2.98-.43-4.27-1.3-1.28-.86-2.31-2.04-3.08-3.53-.77-1.49-1.15-3.17-1.15-5.04s.39-3.58,1.17-5.06c.78-1.48,1.84-2.63,3.17-3.47,1.33-.84,2.83-1.26,4.48-1.26.98,0,1.88.14,2.7.43.82.29,1.53.69,2.14,1.21.61.52,1.12,1.11,1.51,1.78.4.67.64,1.39.74,2.16l-.83-.29v-4.9h3.74v18.9h-3.74v-4.5l.86-.25c-.14.65-.44,1.28-.88,1.89-.44.61-1.01,1.16-1.69,1.64-.68.48-1.44.86-2.27,1.15-.83.29-1.7.43-2.61.43Zm.97-3.42c1.13,0,2.12-.28,2.99-.83.86-.55,1.54-1.31,2.03-2.29.49-.97.74-2.08.74-3.33s-.25-2.32-.74-3.28c-.49-.96-1.17-1.72-2.03-2.27-.86-.55-1.86-.83-2.99-.83s-2.08.28-2.93.83c-.85.55-1.52,1.31-2.02,2.27-.49.96-.74,2.05-.74,3.28s.25,2.36.74,3.33c.49.97,1.16,1.73,2.02,2.29.85.55,1.83.83,2.93.83Z"/>
      </g>
    </g>
  </g>
</svg>