<?xml version="1.0" encoding="UTF-8"?>
<!DOCTYPE svg PUBLIC "-//W3C//DTD SVG 1.1//EN" "http://www.w3.org/Graphics/SVG/1.1/DTD/svg11.dtd">
<!-- Creator: CorelDRAW X7 -->
<svg xmlns="http://www.w3.org/2000/svg" xml:space="preserve" width="100px" height="100px" version="1.1" style="shape-rendering:geometricPrecision; text-rendering:geometricPrecision; image-rendering:optimizeQuality; fill-rule:evenodd; clip-rule:evenodd"
viewBox="0 0 100 100"
 xmlns:xlink="http://www.w3.org/1999/xlink">
 <defs>
  <style type="text/css">
   <![CDATA[
    .fil4 {fill:none}
    .fil3 {fill:#211F26}
    .fil0 {fill:#3E00FF}
    .fil1 {fill:#80FFED}
    .fil2 {fill:white}
   ]]>
  </style>
   <clipPath id="id0">
    <path d="M50 1c27,0 49,22 49,49 0,27 -22,49 -49,49 -27,0 -49,-22 -49,-49 0,-27 22,-49 49,-49z"/>
   </clipPath>
 </defs>
 <g id="Layer_x0020_1">
  <metadata id="CorelCorpID_0Corel-Layer"/>
  <g>
  </g>
  <g style="clip-path:url(#id0)">
   <g>
    <g id="_2190077073584">
     <g>
      <path class="fil0" d="M92 100c3,-2 6,-5 8,-8l0 -74c-6,-8 -15,-14 -24,-18l-53 0c-9,4 -17,9 -23,16l0 78c2,2 4,4 6,6l86 0z"/>
      <polygon class="fil1" points="27,0 27,13 33,13 33,0 "/>
      <polygon class="fil1" points="33,16 27,16 27,35 33,35 "/>
      <polygon class="fil1" points="47,0 42,0 42,19 47,19 "/>
      <polygon class="fil1" points="47,22 42,22 42,42 47,42 "/>
      <polygon class="fil1" points="57,0 57,5 63,5 63,0 "/>
      <polygon class="fil1" points="63,8 57,8 57,13 63,13 "/>
      <polygon class="fil1" points="76,4 70,4 70,19 76,19 "/>
      <polygon class="fil1" points="76,50 70,50 70,90 76,90 "/>
      <path class="fil1" d="M79 44c0,1 0,2 0,2 0,0 0,0 0,0 -1,1 -1,1 -1,1 0,1 0,1 0,1 -1,1 -2,2 -3,3 -5,5 -17,3 -21,9 -3,4 0,10 2,15 2,7 6,11 8,13 1,4 0,8 0,12l-50 0c-1,-1 -1,-2 -1,-3 0,0 0,-1 0,-1 0,0 0,0 -1,-1 0,0 0,-1 0,-2 -1,-2 -2,-4 -3,-8 -2,-6 -3,-14 -2,-23 3,-13 9,-21 12,-24 0,0 0,0 0,0 0,0 0,0 0,0 -1,-1 -1,-1 -2,-1 0,0 0,0 0,0 0,0 0,0 0,0 0,0 0,0 0,0 -1,-1 -1,-1 -1,-1 0,0 -1,0 -1,0 0,0 0,-1 0,-1 -1,0 -1,0 -1,0 0,-1 0,-1 0,-1 -1,0 -1,0 -1,0 0,-1 0,-1 0,-1 -1,0 -1,-1 -1,-1 0,0 0,0 0,0 0,-1 -1,-1 -1,-2 -1,-3 0,-7 0,-8 10,3 14,2 17,0 3,-1 5,-2 8,-4 0,0 1,-1 3,-1 0,0 1,0 2,-1 1,0 1,0 2,0 0,0 1,0 1,0 0,0 0,0 1,0 0,0 0,0 0,0 1,1 1,1 2,1 0,0 0,0 0,0 0,0 0,0 1,0 0,0 0,0 0,0 1,0 1,0 1,0 0,0 0,0 0,0 0,0 1,1 1,1 0,0 0,0 1,0 0,0 0,0 0,0 1,0 2,1 2,1 1,0 1,1 2,1 0,0 0,0 0,0 1,0 1,0 1,1 0,0 1,0 1,0 0,0 1,1 2,1 0,0 0,1 1,1 0,0 1,0 1,1 0,0 1,0 1,0 0,0 0,1 1,1 0,0 0,0 0,0 0,0 1,0 1,1 0,0 0,0 0,0 0,0 0,0 0,0 0,0 1,0 1,0 0,0 0,1 0,1 0,0 0,0 0,0 0,0 0,0 0,0 1,0 1,0 1,0 0,0 0,0 0,0 0,1 0,1 0,1 1,0 1,1 2,1 0,0 0,1 0,1 0,0 0,0 0,0 1,0 2,1 3,2 2,1 3,1 4,2 1,0 1,0 2,0 1,1 2,2 2,3 2,2 1,5 0,7l0 0z"/>
      <path class="fil1" d="M79 44c0,1 0,2 0,2 0,0 0,0 0,0 -1,1 -2,4 -4,5 -5,5 -17,3 -21,9 -3,4 0,10 2,15 2,7 6,11 8,13 1,4 0,8 0,12l-35 0c0,0 0,-1 0,-1 -1,0 -2,1 -2,1l-8 0 0 0c-2,-2 -3,-4 -5,-5 -1,0 -2,1 -2,1 -2,-4 -9,-19 -5,-37 3,-10 8,-18 12,-21 0,0 0,0 0,0 0,0 0,0 0,0 -1,-1 -1,-1 -1,-1 -1,0 -1,0 -1,0 0,0 0,0 0,0 0,0 0,0 0,0 -1,-1 -1,-1 -1,-1 0,0 -1,0 -1,0 0,0 0,-1 0,-1 -1,0 -1,0 -1,0 0,-1 0,-1 0,-1 -1,0 -1,0 -1,0 0,-1 0,-1 0,-1 -1,0 -1,-1 -1,-1 0,0 0,0 0,0 0,-1 -1,-1 -1,-2 -1,-3 0,-7 0,-8 10,3 15,2 17,0 3,-1 5,-2 8,-3 0,-1 1,-2 3,-2 1,0 1,0 2,-1 1,0 1,0 2,0 0,0 1,0 1,0 0,0 0,0 1,0 0,0 0,0 0,1 1,0 1,0 2,0 0,0 0,0 0,0 0,0 0,0 1,0 0,0 0,0 0,0 1,0 1,0 1,0 0,0 0,0 0,0 0,0 1,1 1,1 0,0 0,0 1,0 0,0 0,0 0,0 1,0 2,1 2,1 1,0 1,1 2,1 0,0 0,0 0,0 1,0 1,0 1,1 0,0 1,0 1,0 0,0 1,1 2,1 0,0 0,1 1,1 0,0 1,0 1,1 0,0 1,0 1,0 0,0 0,1 1,1 0,0 0,0 0,0 0,0 1,0 1,1 0,0 0,0 0,0 0,0 0,0 0,0 0,0 1,0 1,0 0,0 0,1 0,1 0,0 0,0 0,0 0,0 0,0 0,0 1,0 1,0 1,0 0,0 0,0 0,0 0,0 0,0 0,0 0,1 0,1 0,1 1,0 1,1 2,2 0,0 0,0 0,0 -3,-2 -15,-11 -31,-7 -8,1 -13,5 -16,8 3,1 8,2 8,4 0,1 -4,2 -6,3 -9,4 -17,23 -11,40 3,7 7,11 11,15 -3,-5 -4,-10 -5,-15 2,3 6,8 13,11 4,1 8,1 10,2 4,0 7,-1 10,-1 -2,0 -7,-1 -12,-4 -4,-3 -6,-5 -7,-7 10,2 14,0 16,-2 4,-5 -3,-14 2,-20 4,-3 11,-5 14,-5 4,0 8,0 8,-1 0,0 -1,-1 -2,-2 -1,-1 -2,-2 -2,-4 0,1 2,2 4,3 1,0 2,0 3,0 1,-1 2,-1 2,-1 1,-1 1,-3 2,-5 0,1 0,2 0,2l0 0zm-65 56c-1,-1 -1,-3 -1,-4 0,0 0,0 -1,-1 1,2 2,3 4,5l-2 0z"/>
      <path class="fil2" d="M87 44c0,1 0,2 0,2 0,0 0,0 -1,0 0,1 0,1 0,1 0,1 0,1 0,1 -1,1 -2,2 -3,3 -5,5 -17,3 -21,9 -3,4 0,10 2,15 2,7 6,11 8,13 0,4 0,8 -1,12l-49 0c-1,-1 -1,-2 -1,-3 0,0 0,-1 0,-1 0,0 -1,0 -1,-1 0,0 0,-1 0,-2 -1,-2 -2,-4 -3,-8 -2,-6 -3,-14 -2,-23 3,-13 9,-21 12,-24 0,0 0,0 0,0 0,0 0,0 0,0 -1,-1 -1,-1 -2,-1 0,0 0,0 0,0 0,0 0,0 0,0 0,0 0,0 0,0 -1,-1 -1,-1 -1,-1 -1,0 -1,0 -1,0 0,0 0,-1 0,-1 -1,0 -1,0 -1,0 0,-1 0,-1 -1,-1 0,0 0,0 0,0 0,-1 0,-1 0,-1 -1,0 -1,-1 -1,-1 0,0 0,0 0,0 0,-1 -1,-1 -1,-2 -1,-3 0,-7 0,-8 10,3 14,2 17,0 2,-1 5,-2 8,-4 0,0 1,-1 3,-1 0,0 1,0 2,-1 1,0 1,0 2,0 0,0 0,0 1,0 0,0 0,0 0,0 1,0 1,0 1,0 1,1 1,1 2,1 0,0 0,0 0,0 0,0 0,0 1,0 0,0 0,0 0,0 1,0 1,0 1,0 0,0 0,0 0,0 0,0 1,1 1,1 0,0 0,0 0,0 1,0 1,0 1,0 1,0 2,1 2,1 1,0 1,1 2,1 0,0 0,0 0,0 1,0 1,0 1,1 0,0 1,0 1,0 0,0 1,1 2,1 0,0 0,1 1,1 0,0 1,0 1,1 0,0 1,0 1,0 0,0 0,1 1,1 0,0 0,0 0,0 0,0 0,0 1,1 0,0 0,0 0,0 0,0 0,0 0,0 0,0 0,0 1,0 0,0 0,1 0,1 0,0 0,0 0,0 0,0 0,0 0,0 0,0 1,0 1,0 0,0 0,0 0,0 0,1 0,1 0,1 1,0 1,1 2,1 0,0 0,1 0,1 0,0 0,0 0,0 1,0 2,1 3,2 2,1 3,1 4,2 1,0 1,0 2,0 1,1 2,2 2,3 1,2 1,5 0,7l0 0z"/>
      <path class="fil2" d="M85 34c-1,5 -21,7 -36,-1 -4,-3 -8,-6 -10,-9 2,-1 6,-3 10,-4 5,-1 10,-1 14,0 2,1 4,3 6,4 4,3 5,4 7,6 1,0 2,1 3,2 2,1 3,1 4,2 1,0 1,0 2,0l0 0z"/>
      <path class="fil3" d="M87 46c1,-3 2,-7 0,-9 -1,-2 -2,-2 -4,-3 0,0 -1,1 -1,2 -1,4 2,9 5,10l0 0z"/>
      <path class="fil0" d="M72 36c-3,-1 -4,-2 -4,-2 0,-1 1,0 2,-1 2,0 3,-1 4,-1 -3,-1 -6,-1 -9,-2 -2,0 -4,-1 -7,-1 1,1 4,5 9,7 2,0 4,0 5,0l0 0z"/>
      <path class="fil3" d="M87 93c-1,3 -1,5 -2,7l-14 0c1,-4 1,-8 1,-12 -2,-2 -6,-6 -8,-13 -2,-5 -5,-11 -2,-15 4,-6 16,-4 21,-9 -5,5 -17,4 -20,10 -3,4 0,10 1,14 6,12 19,17 23,18l0 0z"/>
      <path class="fil3" d="M87 44c0,1 0,2 0,2 0,0 0,0 -1,0 0,1 -1,4 -3,5 -5,5 -17,3 -21,9 -3,4 0,10 2,15 2,7 6,11 8,13 0,4 0,8 -1,12l-34 0c0,0 0,-1 0,-1 -1,0 -2,1 -2,1l-8 0 -1 0c-1,-2 -2,-4 -4,-5 -1,0 -2,1 -2,1 -2,-4 -9,-19 -5,-37 3,-10 8,-18 12,-21 0,0 0,0 0,0 0,0 0,0 0,0 -1,-1 -1,-1 -2,-1 0,0 0,0 0,0 0,0 0,0 0,0 0,0 0,0 0,0 -1,-1 -1,-1 -1,-1 0,0 -1,0 -1,0 0,0 0,-1 0,-1 -1,0 -1,0 -1,0 0,-1 0,-1 0,-1 -1,0 -1,0 -1,0 0,-1 0,-1 0,-1 -1,0 -1,-1 -1,-1 0,0 0,0 0,0 0,-1 -1,-1 -1,-2 -1,-3 0,-7 0,-8 10,3 14,2 17,0 3,-1 5,-2 8,-3 0,-1 1,-2 3,-2 0,0 1,0 2,-1 1,0 1,0 2,0 0,0 0,0 1,0 0,0 0,0 0,0 1,0 1,0 1,1 1,0 1,0 2,0 0,0 0,0 0,0 0,0 0,0 1,0 0,0 0,0 0,0 1,0 1,0 1,0 0,0 0,0 0,0 0,0 1,1 1,1 0,0 0,0 1,0 0,0 0,0 0,0 1,0 2,1 2,1 1,0 1,1 2,1 0,0 0,0 0,0 1,0 1,0 1,1 0,0 1,0 1,0 0,0 1,1 2,1 0,0 0,1 1,1 0,0 1,0 1,1 0,0 1,0 1,0 0,0 0,1 1,1 0,0 0,0 0,0 0,0 1,0 1,1 0,0 0,0 0,0 0,0 0,0 0,0 0,0 0,0 1,0 0,0 0,1 0,1 0,0 0,0 0,0 0,0 0,0 0,0 0,0 1,0 1,0 0,0 0,0 0,0 0,0 0,0 0,0 0,1 0,1 0,1 1,0 1,1 2,2 0,0 0,0 0,0 -3,-2 -15,-11 -31,-7 -8,1 -13,5 -16,8 3,1 8,2 8,4 0,1 -4,2 -6,3 -9,4 -17,23 -11,40 2,7 7,11 11,15 -3,-5 -4,-10 -5,-15 2,3 6,8 13,11 4,1 8,1 10,2 4,0 7,-1 10,-1 -2,0 -7,-1 -12,-4 -4,-3 -6,-5 -7,-7 10,2 14,0 16,-2 4,-5 -3,-14 2,-20 4,-3 11,-5 14,-5 4,0 8,0 8,-1 0,0 -1,-1 -2,-2 -1,-1 -2,-2 -2,-4 0,1 2,2 4,3 1,0 2,0 3,0 1,-1 2,-1 2,-1 1,-1 1,-3 2,-5 0,1 0,2 0,2l0 0zm-65 56c-1,-1 -1,-3 -1,-4 0,0 -1,0 -1,-1 1,2 2,3 4,5l-2 0z"/>
      <polygon class="fil2" points="25,51 11,51 11,64 25,64 "/>
      <polygon class="fil3" points="70,61 61,61 61,69 70,69 "/>
      <polygon class="fil3" points="33,42 27,42 27,48 33,48 "/>
      <polygon class="fil3" points="84,69 70,69 70,76 84,76 "/>
      <polygon class="fil2" points="11,64 2,64 2,73 11,73 "/>
     </g>
    </g>
   </g>
  </g>
  <path class="fil4" d="M50 1c27,0 49,22 49,49 0,27 -22,49 -49,49 -27,0 -49,-22 -49,-49 0,-27 22,-49 49,-49z"/>
 </g>
</svg>
